<?xml version="1.0" encoding="UTF-8" standalone="no"?>
<!DOCTYPE svg PUBLIC "-//W3C//DTD SVG 1.1//EN"
 "http://www.w3.org/Graphics/SVG/1.1/DTD/svg11.dtd">
<!-- Generated by graphviz version 14.0.5 (20251129.0259)
 -->
<!-- Title: FSM Pages: 1 -->
<svg width="6638pt" height="429pt"
 viewBox="0.00 0.00 6638.00 429.00" xmlns="http://www.w3.org/2000/svg" xmlns:xlink="http://www.w3.org/1999/xlink">
<g id="graph0" class="graph" transform="scale(1 1) rotate(0) translate(4 424.85)">
<title>FSM</title>
<polygon fill="white" stroke="none" points="-4,4 -4,-424.85 6633.61,-424.85 6633.61,4 -4,4"/>
<!-- start -->
<g id="node1" class="node">
<title>start</title>
<ellipse fill="black" stroke="black" cx="1.8" cy="-192.48" rx="1.8" ry="1.8"/>
</g>
<!-- q0 -->
<g id="node2" class="node">
<title>q0</title>
<ellipse fill="none" stroke="black" cx="67.6" cy="-192.48" rx="27" ry="18"/>
<text xml:space="preserve" text-anchor="middle" x="67.6" y="-187.43" font-family="Times New Roman,serif" font-size="14.00">q0</text>
</g>
<!-- start&#45;&gt;q0 -->
<g id="edge1" class="edge">
<title>start&#45;&gt;q0</title>
<path fill="none" stroke="black" d="M3.91,-192.48C7.21,-192.48 17.46,-192.48 28.73,-192.48"/>
<polygon fill="black" stroke="black" points="28.62,-195.98 38.62,-192.48 28.62,-188.98 28.62,-195.98"/>
</g>
<!-- q1 -->
<g id="node3" class="node">
<title>q1</title>
<ellipse fill="none" stroke="black" cx="3823.97" cy="-368.48" rx="20.13" ry="20.13"/>
<ellipse fill="none" stroke="black" cx="3823.97" cy="-368.48" rx="24.13" ry="24.13"/>
<text xml:space="preserve" text-anchor="middle" x="3823.97" y="-363.43" font-family="Times New Roman,serif" font-size="14.00">q1</text>
</g>
<!-- q0&#45;&gt;q1 -->
<g id="edge7" class="edge">
<title>q0&#45;&gt;q1</title>
<path fill="none" stroke="black" d="M69.59,-210.54C72.11,-236.88 81.03,-285.1 112.6,-307.48 295.01,-436.77 894.81,-331 1118.35,-335.48 2212.64,-357.38 3556.3,-366.75 3788.13,-368.26"/>
<polygon fill="black" stroke="black" points="3787.96,-371.76 3797.99,-368.32 3788.01,-364.76 3787.96,-371.76"/>
<text xml:space="preserve" text-anchor="middle" x="606.48" y="-375.19" font-family="Times New Roman,serif" font-size="14.00">&#39;&#45;&#39;</text>
</g>
<!-- q5 -->
<g id="node4" class="node">
<title>q5</title>
<ellipse fill="none" stroke="black" cx="3823.97" cy="-267.48" rx="20.13" ry="20.13"/>
<ellipse fill="none" stroke="black" cx="3823.97" cy="-267.48" rx="24.13" ry="24.13"/>
<text xml:space="preserve" text-anchor="middle" x="3823.97" y="-262.43" font-family="Times New Roman,serif" font-size="14.00">q5</text>
</g>
<!-- q0&#45;&gt;q5 -->
<g id="edge8" class="edge">
<title>q0&#45;&gt;q5</title>
<path fill="none" stroke="black" d="M84.51,-206.69C92.38,-212.79 102.37,-219.25 112.6,-222.48 482.15,-338.93 3434.03,-276.25 3788.24,-268.27"/>
<polygon fill="black" stroke="black" points="3788.09,-271.78 3798.01,-268.05 3787.93,-264.78 3788.09,-271.78"/>
<text xml:space="preserve" text-anchor="middle" x="606.48" y="-290.04" font-family="Times New Roman,serif" font-size="14.00">&#39;0&#39;,&#39;1&#39;,&#39;2&#39;,&#39;3&#39;,&#39;4&#39;,&#39;5&#39;,&#39;6&#39;,&#39;7&#39;,&#39;8&#39;,&#39;9&#39;,&#39;A&#39;,&#39;B&#39;,&#39;C&#39;,&#39;D&#39;,&#39;E&#39;,&#39;F&#39;,&#39;G&#39;,&#39;H&#39;,&#39;I&#39;,&#39;J&#39;,&#39;K&#39;,&#39;L&#39;,&#39;M&#39;,&#39;N&#39;,&#39;O&#39;,&#39;P&#39;,&#39;Q&#39;,&#39;R&#39;,&#39;S&#39;,&#39;T&#39;,&#39;U&#39;,&#39;V&#39;,&#39;W&#39;,&#39;X&#39;,&#39;Y&#39;,&#39;Z&#39;,&#39;_&#39;,&#39;a&#39;,&#39;b&#39;,&#39;c&#39;,&#39;d&#39;,&#39;e&#39;,&#39;f&#39;,&#39;g&#39;,&#39;h&#39;,&#39;i&#39;,&#39;j&#39;,&#39;k&#39;,&#39;l&#39;,&#39;m&#39;,&#39;n&#39;,&#39;o&#39;,&#39;p&#39;,&#39;q&#39;,&#39;r&#39;,&#39;s&#39;,&#39;t&#39;,&#39;u&#39;,&#39;v&#39;,&#39;w&#39;,&#39;x&#39;,&#39;y&#39;,&#39;z&#39;</text>
</g>
<!-- q6 -->
<g id="node5" class="node">
<title>q6</title>
<ellipse fill="none" stroke="black" cx="6605.48" cy="-152.48" rx="20.13" ry="20.13"/>
<ellipse fill="none" stroke="black" cx="6605.48" cy="-152.48" rx="24.13" ry="24.13"/>
<text xml:space="preserve" text-anchor="middle" x="6605.48" y="-147.43" font-family="Times New Roman,serif" font-size="14.00">q6</text>
</g>
<!-- q0&#45;&gt;q6 -->
<g id="edge2" class="edge">
<title>q0&#45;&gt;q6</title>
<path fill="none" stroke="black" d="M94.65,-193.86C100.55,-194.11 106.79,-194.34 112.6,-194.48 551.49,-204.45 661.35,-195 1100.35,-194.48 1703.6,-193.75 5930.51,-252.24 6529.6,-181.48 6544.91,-179.67 6548.88,-178.8 6563.35,-173.48 6566.81,-172.2 6570.36,-170.71 6573.84,-169.12"/>
<polygon fill="black" stroke="black" points="6575.19,-172.36 6582.63,-164.82 6572.11,-166.07 6575.19,-172.36"/>
<text xml:space="preserve" text-anchor="middle" x="3823.97" y="-219.7" font-family="Times New Roman,serif" font-size="14.00">0x01,0x02,0x03,0x04,0x05,0x06,0x07,0x08,0x0E,0x0F,0x10,0x11,0x12,0x13,0x14,0x15,0x16,0x17,0x18,0x19,0x1A,0x1B,0x1C,0x1D,0x1E,0x1F,&#39;&quot;&#39;,&#39;#&#39;,&#39;$&#39;,&#39;&#39;&#39;,&#39;(&#39;,&#39;)&#39;,&#39;*&#39;,&#39;+&#39;,&#39;,&#39;,&#39;.&#39;,&#39;:&#39;,&#39;;&#39;,&#39;=&#39;,&#39;&gt;&#39;,&#39;?&#39;,&#39;@&#39;,&#39;[&#39;,&#39;&#39;,&#39;]&#39;,&#39;^&#39;,&#39;`&#39;,&#39;{&#39;,&#39;}&#39;,&#39;~&#39;,0x7F,0x80,0x81,0x82,0x83,0x84,0x85,0x86,0x87,0x88,0x89,0x8A,0x8B,0x8C,0x8D,0x8E,0x8F,0x90,0x91,0x92,0x93,0x94,0x95,0x96,0x97,0x98,0x99,0x9A,0x9B,0x9C,0x9D,0x9E,0x9F,0xA0,0xA1,0xA2,0xA3,0xA4,0xA5,0xA6,0xA7,0xA8,0xA9,0xAA,0xAB,0xAC,0xAD,0xAE,0xAF,0xB0,0xB1,0xB2,0xB3,0xB4,0xB5,0xB6,0xB7,0xB8,0xB9,0xBA,0xBB,0xBC,0xBD,0xBE,0xBF,0xC0,0xC1,0xC2,0xC3,0xC4,0xC5,0xC6,0xC7,0xC8,0xC9,0xCA,0xCB,0xCC,0xCD,0xCE,0xCF,0xD0,0xD1,0xD2,0xD3,0xD4,0xD5,0xD6,0xD7,0xD8,0xD9,0xDA,0xDB,0xDC,0xDD,0xDE,0xDF,0xE0,0xE1,0xE2,0xE3,0xE4,0xE5,0xE6,0xE7,0xE8,0xE9,0xEA,0xEB,0xEC,0xED,0xEE,0xEF,0xF0,0xF1,0xF2,0xF3,0xF4,0xF5,0xF6,0xF7,0xF8,0xF9,0xFA,0xFB,0xFC,0xFD,0xFE,0xFF</text>
</g>
<!-- q2 -->
<g id="node6" class="node">
<title>q2</title>
<ellipse fill="none" stroke="black" cx="3823.97" cy="-152.48" rx="20.13" ry="20.13"/>
<text xml:space="preserve" text-anchor="middle" x="3823.97" y="-147.43" font-family="Times New Roman,serif" font-size="14.00">q2</text>
</g>
<!-- q0&#45;&gt;q2 -->
<g id="edge3" class="edge">
<title>q0&#45;&gt;q2</title>
<path fill="none" stroke="black" d="M91.55,-183.42C98.23,-181.19 105.62,-179.12 112.6,-177.98 496.42,-115.01 3458.42,-148.15 3792.37,-152.11"/>
<polygon fill="black" stroke="black" points="3791.98,-155.6 3802.02,-152.22 3792.07,-148.6 3791.98,-155.6"/>
<text xml:space="preserve" text-anchor="middle" x="606.48" y="-181.18" font-family="Times New Roman,serif" font-size="14.00">&#39;!&#39;</text>
</g>
<!-- q3 -->
<g id="node7" class="node">
<title>q3</title>
<ellipse fill="none" stroke="black" cx="3823.97" cy="-94.48" rx="20.13" ry="20.13"/>
<text xml:space="preserve" text-anchor="middle" x="3823.97" y="-89.43" font-family="Times New Roman,serif" font-size="14.00">q3</text>
</g>
<!-- q0&#45;&gt;q3 -->
<g id="edge5" class="edge">
<title>q0&#45;&gt;q3</title>
<path fill="none" stroke="black" d="M74.21,-174.85C80.58,-158.14 92.75,-134 112.6,-122.98 197.82,-75.64 3441.02,-92.35 3792.23,-94.3"/>
<polygon fill="black" stroke="black" points="3791.96,-97.8 3801.98,-94.36 3792,-90.8 3791.96,-97.8"/>
<text xml:space="preserve" text-anchor="middle" x="606.48" y="-126.18" font-family="Times New Roman,serif" font-size="14.00">&#39;&amp;&#39;</text>
</g>
<!-- q4 -->
<g id="node8" class="node">
<title>q4</title>
<ellipse fill="none" stroke="black" cx="3823.97" cy="-36.48" rx="20.13" ry="20.13"/>
<text xml:space="preserve" text-anchor="middle" x="3823.97" y="-31.43" font-family="Times New Roman,serif" font-size="14.00">q4</text>
</g>
<!-- q0&#45;&gt;q4 -->
<g id="edge11" class="edge">
<title>q0&#45;&gt;q4</title>
<path fill="none" stroke="black" d="M69.26,-174.1C71.35,-146.78 79.71,-96.16 112.6,-72.98 271.85,39.26 3444.24,-28.05 3792.09,-35.78"/>
<polygon fill="black" stroke="black" points="3791.89,-39.28 3801.96,-36 3792.04,-32.28 3791.89,-39.28"/>
<text xml:space="preserve" text-anchor="middle" x="606.48" y="-76.18" font-family="Times New Roman,serif" font-size="14.00">&#39;|&#39;</text>
</g>
<!-- q1&#45;&gt;q6 -->
<g id="edge10" class="edge">
<title>q1&#45;&gt;q6</title>
<path fill="none" stroke="black" d="M3848.54,-369.75C4100.68,-383.14 6295.42,-494.76 6529.6,-335.48 6578.38,-302.3 6595.41,-231.2 6601.34,-188.05"/>
<polygon fill="black" stroke="black" points="6604.81,-188.52 6602.55,-178.17 6597.86,-187.67 6604.81,-188.52"/>
<text xml:space="preserve" text-anchor="middle" x="6555.48" y="-321.54" font-family="Times New Roman,serif" font-size="14.00">&#39;&gt;&#39;</text>
</g>
<!-- q5&#45;&gt;q5 -->
<g id="edge9" class="edge">
<title>q5&#45;&gt;q5</title>
<path fill="none" stroke="black" d="M3799.76,-267.99C3141.2,-282.19 3149.27,-309.61 3823.97,-309.61 4494.73,-309.61 4506.63,-282.51 3859.7,-268.24"/>
<polygon fill="black" stroke="black" points="3859.78,-264.74 3849.7,-268.02 3859.62,-271.74 3859.78,-264.74"/>
<text xml:space="preserve" text-anchor="middle" x="3823.97" y="-312.81" font-family="Times New Roman,serif" font-size="14.00">&#39;0&#39;,&#39;1&#39;,&#39;2&#39;,&#39;3&#39;,&#39;4&#39;,&#39;5&#39;,&#39;6&#39;,&#39;7&#39;,&#39;8&#39;,&#39;9&#39;,&#39;A&#39;,&#39;B&#39;,&#39;C&#39;,&#39;D&#39;,&#39;E&#39;,&#39;F&#39;,&#39;G&#39;,&#39;H&#39;,&#39;I&#39;,&#39;J&#39;,&#39;K&#39;,&#39;L&#39;,&#39;M&#39;,&#39;N&#39;,&#39;O&#39;,&#39;P&#39;,&#39;Q&#39;,&#39;R&#39;,&#39;S&#39;,&#39;T&#39;,&#39;U&#39;,&#39;V&#39;,&#39;W&#39;,&#39;X&#39;,&#39;Y&#39;,&#39;Z&#39;,&#39;_&#39;,&#39;a&#39;,&#39;b&#39;,&#39;c&#39;,&#39;d&#39;,&#39;e&#39;,&#39;f&#39;,&#39;g&#39;,&#39;h&#39;,&#39;i&#39;,&#39;j&#39;,&#39;k&#39;,&#39;l&#39;,&#39;m&#39;,&#39;n&#39;,&#39;o&#39;,&#39;p&#39;,&#39;q&#39;,&#39;r&#39;,&#39;s&#39;,&#39;t&#39;,&#39;u&#39;,&#39;v&#39;,&#39;w&#39;,&#39;x&#39;,&#39;y&#39;,&#39;z&#39;</text>
</g>
<!-- q2&#45;&gt;q6 -->
<g id="edge4" class="edge">
<title>q2&#45;&gt;q6</title>
<path fill="none" stroke="black" d="M3844.59,-152.48C4075.25,-152.48 6268.22,-152.48 6570.09,-152.48"/>
<polygon fill="black" stroke="black" points="6569.66,-155.98 6579.66,-152.48 6569.66,-148.98 6569.66,-155.98"/>
<text xml:space="preserve" text-anchor="middle" x="6555.48" y="-155.68" font-family="Times New Roman,serif" font-size="14.00">&#39;!&#39;</text>
</g>
<!-- q3&#45;&gt;q6 -->
<g id="edge6" class="edge">
<title>q3&#45;&gt;q6</title>
<path fill="none" stroke="black" d="M3844.28,-94.05C4057,-89.46 5966.98,-50.65 6529.6,-123.48 6544.94,-125.46 6548.84,-126.61 6563.35,-131.98 6566.79,-133.25 6570.32,-134.73 6573.81,-136.3"/>
<polygon fill="black" stroke="black" points="6572.05,-139.34 6582.58,-140.5 6575.07,-133.02 6572.05,-139.34"/>
<text xml:space="preserve" text-anchor="middle" x="6555.48" y="-135.18" font-family="Times New Roman,serif" font-size="14.00">&#39;&amp;&#39;</text>
</g>
<!-- q4&#45;&gt;q6 -->
<g id="edge12" class="edge">
<title>q4&#45;&gt;q6</title>
<path fill="none" stroke="black" d="M3844.24,-35.72C4073.22,-26.87 6271.35,54.66 6529.6,-65.48 6554.64,-77.13 6574.51,-101.66 6587.48,-121.71"/>
<polygon fill="black" stroke="black" points="6584.43,-123.44 6592.65,-130.12 6590.39,-119.77 6584.43,-123.44"/>
<text xml:space="preserve" text-anchor="middle" x="6555.48" y="-92.45" font-family="Times New Roman,serif" font-size="14.00">&#39;|&#39;</text>
</g>
</g>
</svg>
