<?xml version="1.0" encoding="UTF-8" standalone="no"?>
<!DOCTYPE svg PUBLIC "-//W3C//DTD SVG 1.1//EN"
 "http://www.w3.org/Graphics/SVG/1.1/DTD/svg11.dtd">
<!-- Generated by graphviz version 14.0.5 (20251129.0259)
 -->
<!-- Title: FSM Pages: 1 -->
<svg width="1111pt" height="904pt"
 viewBox="0.00 0.00 1111.00 904.00" xmlns="http://www.w3.org/2000/svg" xmlns:xlink="http://www.w3.org/1999/xlink">
<g id="graph0" class="graph" transform="scale(1 1) rotate(0) translate(4 899.87)">
<title>FSM</title>
<polygon fill="white" stroke="none" points="-4,4 -4,-899.87 1106.82,-899.87 1106.82,4 -4,4"/>
<!-- start -->
<g id="node1" class="node">
<title>start</title>
<ellipse fill="black" stroke="black" cx="1.8" cy="-536.74" rx="1.8" ry="1.8"/>
</g>
<!-- q0 -->
<g id="node2" class="node">
<title>q0</title>
<ellipse fill="none" stroke="black" cx="67.6" cy="-536.74" rx="27" ry="18"/>
<text xml:space="preserve" text-anchor="middle" x="67.6" y="-531.69" font-family="Times New Roman,serif" font-size="14.00">q0</text>
</g>
<!-- start&#45;&gt;q0 -->
<g id="edge1" class="edge">
<title>start&#45;&gt;q0</title>
<path fill="none" stroke="black" d="M3.91,-536.74C7.21,-536.74 17.46,-536.74 28.73,-536.74"/>
<polygon fill="black" stroke="black" points="28.62,-540.24 38.62,-536.74 28.62,-533.24 28.62,-540.24"/>
</g>
<!-- q1 -->
<g id="node3" class="node">
<title>q1</title>
<ellipse fill="none" stroke="black" cx="234.06" cy="-871.74" rx="20.13" ry="20.13"/>
<ellipse fill="none" stroke="black" cx="234.06" cy="-871.74" rx="24.13" ry="24.13"/>
<text xml:space="preserve" text-anchor="middle" x="234.06" y="-866.69" font-family="Times New Roman,serif" font-size="14.00">q1</text>
</g>
<!-- q0&#45;&gt;q1 -->
<g id="edge7" class="edge">
<title>q0&#45;&gt;q1</title>
<path fill="none" stroke="black" d="M68.62,-554.97C69.05,-614.41 73.56,-801.19 112.6,-843.74 134.1,-867.17 171.03,-872.86 198.35,-873.5"/>
<polygon fill="black" stroke="black" points="198.26,-877 208.25,-873.49 198.25,-870 198.26,-877"/>
<text xml:space="preserve" text-anchor="middle" x="118.22" y="-856.23" font-family="Times New Roman,serif" font-size="14.00">&#39;&#45;&#39;</text>
</g>
<!-- q35 -->
<g id="node4" class="node">
<title>q35</title>
<ellipse fill="none" stroke="black" cx="1074.09" cy="-460.74" rx="24.74" ry="24.74"/>
<ellipse fill="none" stroke="black" cx="1074.09" cy="-460.74" rx="28.74" ry="28.74"/>
<text xml:space="preserve" text-anchor="middle" x="1074.09" y="-455.69" font-family="Times New Roman,serif" font-size="14.00">q35</text>
</g>
<!-- q0&#45;&gt;q35 -->
<g id="edge4" class="edge">
<title>q0&#45;&gt;q35</title>
<path fill="none" stroke="black" d="M70.62,-555.07C78.19,-619.21 107.45,-829.74 165.59,-829.74 165.59,-829.74 165.59,-829.74 969.86,-829.74 1010.12,-829.74 1010.94,-796.5 1027.35,-759.74 1065.88,-673.37 1072.84,-560.55 1073.57,-501.23"/>
<polygon fill="black" stroke="black" points="1077.07,-501.3 1073.63,-491.27 1070.07,-501.25 1077.07,-501.3"/>
<text xml:space="preserve" text-anchor="middle" x="567.72" y="-832.94" font-family="Times New Roman,serif" font-size="14.00">&#39;%&#39;,&#39;(&#39;,&#39;)&#39;,&#39;*&#39;,&#39;+&#39;,&#39;,&#39;,&#39;/&#39;,&#39;:&#39;,&#39;;&#39;,&#39;[&#39;,&#39;]&#39;,&#39;{&#39;,&#39;}&#39;</text>
</g>
<!-- q2 -->
<g id="node5" class="node">
<title>q2</title>
<ellipse fill="none" stroke="black" cx="567.72" cy="-780.74" rx="20.13" ry="20.13"/>
<text xml:space="preserve" text-anchor="middle" x="567.72" y="-775.69" font-family="Times New Roman,serif" font-size="14.00">q2</text>
</g>
<!-- q0&#45;&gt;q2 -->
<g id="edge2" class="edge">
<title>q0&#45;&gt;q2</title>
<path fill="none" stroke="black" d="M71.82,-554.85C82.31,-610.9 117.55,-777.74 165.59,-777.74 165.59,-777.74 165.59,-777.74 370.01,-777.74 428.57,-777.74 496.92,-779.08 535.69,-779.97"/>
<polygon fill="black" stroke="black" points="535.59,-783.47 545.67,-780.21 535.75,-776.47 535.59,-783.47"/>
<text xml:space="preserve" text-anchor="middle" x="234.06" y="-780.94" font-family="Times New Roman,serif" font-size="14.00">&#39;!&#39;</text>
</g>
<!-- q3 -->
<g id="node6" class="node">
<title>q3</title>
<ellipse fill="none" stroke="black" cx="166.59" cy="-729.74" rx="20.13" ry="20.13"/>
<text xml:space="preserve" text-anchor="middle" x="166.59" y="-724.69" font-family="Times New Roman,serif" font-size="14.00">q3</text>
</g>
<!-- q0&#45;&gt;q3 -->
<g id="edge35" class="edge">
<title>q0&#45;&gt;q3</title>
<path fill="none" stroke="black" d="M74.53,-554.34C85.37,-585.32 110.22,-651.01 141.85,-700.74 143,-702.55 144.25,-704.38 145.55,-706.18"/>
<polygon fill="black" stroke="black" points="142.49,-707.94 151.38,-713.71 148.03,-703.66 142.49,-707.94"/>
<text xml:space="preserve" text-anchor="middle" x="118.22" y="-669.87" font-family="Times New Roman,serif" font-size="14.00">&#39;p&#39;</text>
</g>
<!-- q9 -->
<g id="node12" class="node">
<title>q9</title>
<ellipse fill="none" stroke="black" cx="166.59" cy="-671.74" rx="20.13" ry="20.13"/>
<text xml:space="preserve" text-anchor="middle" x="166.59" y="-666.69" font-family="Times New Roman,serif" font-size="14.00">q9</text>
</g>
<!-- q0&#45;&gt;q9 -->
<g id="edge52" class="edge">
<title>q0&#45;&gt;q9</title>
<path fill="none" stroke="black" d="M78.9,-553.48C87.59,-567.4 100.51,-587.63 112.6,-604.74 124.9,-622.14 128.6,-626.04 141.85,-642.74 143.18,-644.42 144.57,-646.15 145.97,-647.89"/>
<polygon fill="black" stroke="black" points="142.96,-649.73 151.98,-655.28 148.39,-645.31 142.96,-649.73"/>
<text xml:space="preserve" text-anchor="middle" x="118.22" y="-622.71" font-family="Times New Roman,serif" font-size="14.00">&#39;v&#39;</text>
</g>
<!-- q11 -->
<g id="node14" class="node">
<title>q11</title>
<ellipse fill="none" stroke="black" cx="166.59" cy="-608.74" rx="24.74" ry="24.74"/>
<text xml:space="preserve" text-anchor="middle" x="166.59" y="-603.69" font-family="Times New Roman,serif" font-size="14.00">q11</text>
</g>
<!-- q0&#45;&gt;q11 -->
<g id="edge11" class="edge">
<title>q0&#45;&gt;q11</title>
<path fill="none" stroke="black" d="M83.44,-551.57C91.69,-559.46 102.34,-569.09 112.6,-576.74 119.47,-581.86 127.2,-586.9 134.59,-591.4"/>
<polygon fill="black" stroke="black" points="132.66,-594.32 143.04,-596.41 136.22,-588.3 132.66,-594.32"/>
<text xml:space="preserve" text-anchor="middle" x="118.22" y="-587.7" font-family="Times New Roman,serif" font-size="14.00">&#39;b&#39;</text>
</g>
<!-- q15 -->
<g id="node18" class="node">
<title>q15</title>
<ellipse fill="none" stroke="black" cx="234.06" cy="-566.74" rx="24.74" ry="24.74"/>
<text xml:space="preserve" text-anchor="middle" x="234.06" y="-561.69" font-family="Times New Roman,serif" font-size="14.00">q15</text>
</g>
<!-- q0&#45;&gt;q15 -->
<g id="edge27" class="edge">
<title>q0&#45;&gt;q15</title>
<path fill="none" stroke="black" d="M93.94,-541.36C121.82,-546.45 166.82,-554.65 198.06,-560.35"/>
<polygon fill="black" stroke="black" points="197.34,-563.78 207.81,-562.13 198.6,-556.89 197.34,-563.78"/>
<text xml:space="preserve" text-anchor="middle" x="118.22" y="-549.88" font-family="Times New Roman,serif" font-size="14.00">&#39;n&#39;</text>
</g>
<!-- q16 -->
<g id="node19" class="node">
<title>q16</title>
<ellipse fill="none" stroke="black" cx="698.96" cy="-517.74" rx="24.74" ry="24.74"/>
<text xml:space="preserve" text-anchor="middle" x="698.96" y="-512.69" font-family="Times New Roman,serif" font-size="14.00">q16</text>
</g>
<!-- q0&#45;&gt;q16 -->
<g id="edge13" class="edge">
<title>q0&#45;&gt;q16</title>
<path fill="none" stroke="black" d="M92.66,-529.34C112.13,-524 140.36,-517.74 165.59,-517.74 165.59,-517.74 165.59,-517.74 437.49,-517.74 517.91,-517.74 612.29,-517.74 662.43,-517.74"/>
<polygon fill="black" stroke="black" points="662.39,-521.24 672.39,-517.74 662.39,-514.24 662.39,-521.24"/>
<text xml:space="preserve" text-anchor="middle" x="301.54" y="-520.94" font-family="Times New Roman,serif" font-size="14.00">&#39;e&#39;</text>
</g>
<!-- q20 -->
<g id="node23" class="node">
<title>q20</title>
<ellipse fill="none" stroke="black" cx="698.96" cy="-408.74" rx="24.74" ry="24.74"/>
<text xml:space="preserve" text-anchor="middle" x="698.96" y="-403.69" font-family="Times New Roman,serif" font-size="14.00">q20</text>
</g>
<!-- q0&#45;&gt;q20 -->
<g id="edge18" class="edge">
<title>q0&#45;&gt;q20</title>
<path fill="none" stroke="black" d="M79.2,-520.03C95.02,-497.38 127.1,-459.74 165.59,-459.74 165.59,-459.74 165.59,-459.74 437.49,-459.74 520.03,-459.74 614.6,-434.76 663.94,-419.77"/>
<polygon fill="black" stroke="black" points="664.95,-423.12 673.46,-416.82 662.88,-416.44 664.95,-423.12"/>
<text xml:space="preserve" text-anchor="middle" x="301.54" y="-462.94" font-family="Times New Roman,serif" font-size="14.00">&#39;g&#39;</text>
</g>
<!-- q23 -->
<g id="node26" class="node">
<title>q23</title>
<ellipse fill="none" stroke="black" cx="166.59" cy="-393.74" rx="24.74" ry="24.74"/>
<text xml:space="preserve" text-anchor="middle" x="166.59" y="-388.69" font-family="Times New Roman,serif" font-size="14.00">q23</text>
</g>
<!-- q0&#45;&gt;q23 -->
<g id="edge31" class="edge">
<title>q0&#45;&gt;q23</title>
<path fill="none" stroke="black" d="M72.52,-518.69C78.2,-495.86 90.54,-456.27 112.6,-429.24 118.56,-421.94 126.41,-415.57 134.23,-410.32"/>
<polygon fill="black" stroke="black" points="136.04,-413.32 142.7,-405.08 132.36,-407.36 136.04,-413.32"/>
<text xml:space="preserve" text-anchor="middle" x="118.22" y="-432.44" font-family="Times New Roman,serif" font-size="14.00">&#39;o&#39;</text>
</g>
<!-- q28 -->
<g id="node31" class="node">
<title>q28</title>
<ellipse fill="none" stroke="black" cx="436.49" cy="-257.74" rx="24.74" ry="24.74"/>
<text xml:space="preserve" text-anchor="middle" x="436.49" y="-252.69" font-family="Times New Roman,serif" font-size="14.00">q28</text>
</g>
<!-- q0&#45;&gt;q28 -->
<g id="edge22" class="edge">
<title>q0&#45;&gt;q28</title>
<path fill="none" stroke="black" d="M70.68,-518.53C75.8,-482.45 92.43,-401.73 141.85,-359.74 218.99,-294.19 340.73,-269.94 400.3,-261.65"/>
<polygon fill="black" stroke="black" points="400.73,-265.13 410.19,-260.36 399.82,-258.19 400.73,-265.13"/>
<text xml:space="preserve" text-anchor="middle" x="234.06" y="-319.4" font-family="Times New Roman,serif" font-size="14.00">&#39;i&#39;</text>
</g>
<!-- q32 -->
<g id="node35" class="node">
<title>q32</title>
<ellipse fill="none" stroke="black" cx="766.44" cy="-118.74" rx="24.74" ry="24.74"/>
<text xml:space="preserve" text-anchor="middle" x="766.44" y="-113.69" font-family="Times New Roman,serif" font-size="14.00">q32</text>
</g>
<!-- q0&#45;&gt;q32 -->
<g id="edge24" class="edge">
<title>q0&#45;&gt;q32</title>
<path fill="none" stroke="black" d="M69.04,-518.47C71.4,-440.02 85.73,-135.74 165.59,-135.74 165.59,-135.74 165.59,-135.74 568.72,-135.74 625.42,-135.74 690.96,-128.64 730.26,-123.62"/>
<polygon fill="black" stroke="black" points="730.61,-127.1 740.07,-122.33 729.7,-120.16 730.61,-127.1"/>
<text xml:space="preserve" text-anchor="middle" x="301.54" y="-138.94" font-family="Times New Roman,serif" font-size="14.00">&#39;l&#39;</text>
</g>
<!-- q33 -->
<g id="node36" class="node">
<title>q33</title>
<ellipse fill="none" stroke="black" cx="369.01" cy="-77.74" rx="24.74" ry="24.74"/>
<text xml:space="preserve" text-anchor="middle" x="369.01" y="-72.69" font-family="Times New Roman,serif" font-size="14.00">q33</text>
</g>
<!-- q0&#45;&gt;q33 -->
<g id="edge5" class="edge">
<title>q0&#45;&gt;q33</title>
<path fill="none" stroke="black" d="M68.37,-518.38C67.79,-446.96 68.83,-188.34 112.6,-121.74 159.07,-51.03 275.08,-60.46 333.4,-70.45"/>
<polygon fill="black" stroke="black" points="332.63,-73.86 343.1,-72.22 333.89,-66.98 332.63,-73.86"/>
<text xml:space="preserve" text-anchor="middle" x="166.59" y="-94.99" font-family="Times New Roman,serif" font-size="14.00">&#39;&amp;&#39;</text>
</g>
<!-- q34 -->
<g id="node37" class="node">
<title>q34</title>
<ellipse fill="none" stroke="black" cx="901.39" cy="-24.74" rx="24.74" ry="24.74"/>
<text xml:space="preserve" text-anchor="middle" x="901.39" y="-19.69" font-family="Times New Roman,serif" font-size="14.00">q34</text>
</g>
<!-- q0&#45;&gt;q34 -->
<g id="edge53" class="edge">
<title>q0&#45;&gt;q34</title>
<path fill="none" stroke="black" d="M69.27,-518.67C72.09,-447.1 84.23,-183.66 112.6,-105.74 126.94,-66.36 123.68,-27.74 165.59,-27.74 165.59,-27.74 165.59,-27.74 767.44,-27.74 800.47,-27.74 838.11,-26.8 864.89,-25.97"/>
<polygon fill="black" stroke="black" points="864.98,-29.47 874.86,-25.65 864.75,-22.48 864.98,-29.47"/>
<text xml:space="preserve" text-anchor="middle" x="369.01" y="-30.94" font-family="Times New Roman,serif" font-size="14.00">&#39;|&#39;</text>
</g>
<!-- q1&#45;&gt;q35 -->
<g id="edge8" class="edge">
<title>q1&#45;&gt;q35</title>
<path fill="none" stroke="black" d="M258.59,-872.87C285.16,-874.06 329.68,-875.74 368.01,-875.74 368.01,-875.74 368.01,-875.74 969.86,-875.74 999.1,-875.74 1011.06,-868.02 1027.35,-843.74 1064.45,-788.43 1071.51,-587.88 1072.81,-501.15"/>
<polygon fill="black" stroke="black" points="1076.31,-501.26 1072.94,-491.21 1069.31,-501.16 1076.31,-501.26"/>
<text xml:space="preserve" text-anchor="middle" x="698.96" y="-878.94" font-family="Times New Roman,serif" font-size="14.00">&#39;&gt;&#39;</text>
</g>
<!-- q2&#45;&gt;q35 -->
<g id="edge3" class="edge">
<title>q2&#45;&gt;q35</title>
<path fill="none" stroke="black" d="M588.27,-781.4C623.61,-782.53 700.53,-784.74 765.44,-784.74 765.44,-784.74 765.44,-784.74 969.86,-784.74 1004.91,-784.74 1010.78,-761.63 1027.35,-730.74 1067.02,-656.77 1073.72,-556.41 1074.07,-501.24"/>
<polygon fill="black" stroke="black" points="1077.57,-501.36 1074.05,-491.37 1070.57,-501.38 1077.57,-501.36"/>
<text xml:space="preserve" text-anchor="middle" x="833.91" y="-787.94" font-family="Times New Roman,serif" font-size="14.00">&#39;!&#39;</text>
</g>
<!-- q4 -->
<g id="node7" class="node">
<title>q4</title>
<ellipse fill="none" stroke="black" cx="301.54" cy="-729.74" rx="20.13" ry="20.13"/>
<text xml:space="preserve" text-anchor="middle" x="301.54" y="-724.69" font-family="Times New Roman,serif" font-size="14.00">q4</text>
</g>
<!-- q3&#45;&gt;q4 -->
<g id="edge38" class="edge">
<title>q3&#45;&gt;q4</title>
<path fill="none" stroke="black" d="M187.2,-729.74C209.03,-729.74 244.56,-729.74 270.03,-729.74"/>
<polygon fill="black" stroke="black" points="269.76,-733.24 279.76,-729.74 269.76,-726.24 269.76,-733.24"/>
<text xml:space="preserve" text-anchor="middle" x="234.06" y="-732.94" font-family="Times New Roman,serif" font-size="14.00">&#39;r&#39;</text>
</g>
<!-- q5 -->
<g id="node8" class="node">
<title>q5</title>
<ellipse fill="none" stroke="black" cx="436.49" cy="-729.74" rx="20.13" ry="20.13"/>
<text xml:space="preserve" text-anchor="middle" x="436.49" y="-724.69" font-family="Times New Roman,serif" font-size="14.00">q5</text>
</g>
<!-- q4&#45;&gt;q5 -->
<g id="edge32" class="edge">
<title>q4&#45;&gt;q5</title>
<path fill="none" stroke="black" d="M322.15,-729.74C343.98,-729.74 379.51,-729.74 404.98,-729.74"/>
<polygon fill="black" stroke="black" points="404.71,-733.24 414.71,-729.74 404.71,-726.24 404.71,-733.24"/>
<text xml:space="preserve" text-anchor="middle" x="369.01" y="-732.94" font-family="Times New Roman,serif" font-size="14.00">&#39;o&#39;</text>
</g>
<!-- q6 -->
<g id="node9" class="node">
<title>q6</title>
<ellipse fill="none" stroke="black" cx="698.96" cy="-729.74" rx="20.13" ry="20.13"/>
<text xml:space="preserve" text-anchor="middle" x="698.96" y="-724.69" font-family="Times New Roman,serif" font-size="14.00">q6</text>
</g>
<!-- q5&#45;&gt;q6 -->
<g id="edge19" class="edge">
<title>q5&#45;&gt;q6</title>
<path fill="none" stroke="black" d="M457.06,-729.74C502.05,-729.74 613.08,-729.74 667.25,-729.74"/>
<polygon fill="black" stroke="black" points="667,-733.24 677,-729.74 667,-726.24 667,-733.24"/>
<text xml:space="preserve" text-anchor="middle" x="567.72" y="-732.94" font-family="Times New Roman,serif" font-size="14.00">&#39;g&#39;</text>
</g>
<!-- q7 -->
<g id="node10" class="node">
<title>q7</title>
<ellipse fill="none" stroke="black" cx="833.91" cy="-728.74" rx="20.13" ry="20.13"/>
<text xml:space="preserve" text-anchor="middle" x="833.91" y="-723.69" font-family="Times New Roman,serif" font-size="14.00">q7</text>
</g>
<!-- q6&#45;&gt;q7 -->
<g id="edge39" class="edge">
<title>q6&#45;&gt;q7</title>
<path fill="none" stroke="black" d="M719.58,-729.59C741.4,-729.43 776.94,-729.16 802.4,-728.97"/>
<polygon fill="black" stroke="black" points="802.16,-732.47 812.13,-728.89 802.11,-725.47 802.16,-732.47"/>
<text xml:space="preserve" text-anchor="middle" x="766.44" y="-732.61" font-family="Times New Roman,serif" font-size="14.00">&#39;r&#39;</text>
</g>
<!-- q8 -->
<g id="node11" class="node">
<title>q8</title>
<ellipse fill="none" stroke="black" cx="968.86" cy="-728.74" rx="20.13" ry="20.13"/>
<text xml:space="preserve" text-anchor="middle" x="968.86" y="-723.69" font-family="Times New Roman,serif" font-size="14.00">q8</text>
</g>
<!-- q7&#45;&gt;q8 -->
<g id="edge9" class="edge">
<title>q7&#45;&gt;q8</title>
<path fill="none" stroke="black" d="M854.53,-728.74C876.35,-728.74 911.89,-728.74 937.35,-728.74"/>
<polygon fill="black" stroke="black" points="937.08,-732.24 947.08,-728.74 937.08,-725.24 937.08,-732.24"/>
<text xml:space="preserve" text-anchor="middle" x="901.39" y="-731.94" font-family="Times New Roman,serif" font-size="14.00">&#39;a&#39;</text>
</g>
<!-- q8&#45;&gt;q35 -->
<g id="edge26" class="edge">
<title>q8&#45;&gt;q35</title>
<path fill="none" stroke="black" d="M988.26,-722.52C1001.2,-717.18 1017.85,-708.19 1027.35,-694.74 1049.02,-664.05 1062.95,-559.26 1069.22,-500.86"/>
<polygon fill="black" stroke="black" points="1072.7,-501.31 1070.25,-491 1065.73,-500.58 1072.7,-501.31"/>
<text xml:space="preserve" text-anchor="middle" x="1019.47" y="-712.96" font-family="Times New Roman,serif" font-size="14.00">&#39;m&#39;</text>
</g>
<!-- q10 -->
<g id="node13" class="node">
<title>q10</title>
<ellipse fill="none" stroke="black" cx="369.01" cy="-680.74" rx="24.74" ry="24.74"/>
<text xml:space="preserve" text-anchor="middle" x="369.01" y="-675.69" font-family="Times New Roman,serif" font-size="14.00">q10</text>
</g>
<!-- q9&#45;&gt;q10 -->
<g id="edge10" class="edge">
<title>q9&#45;&gt;q10</title>
<path fill="none" stroke="black" d="M187.17,-672.62C220.86,-674.13 290.25,-677.25 332.6,-679.15"/>
<polygon fill="black" stroke="black" points="332.37,-682.64 342.52,-679.59 332.69,-675.65 332.37,-682.64"/>
<text xml:space="preserve" text-anchor="middle" x="234.06" y="-678.86" font-family="Times New Roman,serif" font-size="14.00">&#39;a&#39;</text>
</g>
<!-- q10&#45;&gt;q35 -->
<g id="edge40" class="edge">
<title>q10&#45;&gt;q35</title>
<path fill="none" stroke="black" d="M394.24,-680.74C431.37,-680.74 504.57,-680.74 566.72,-680.74 566.72,-680.74 566.72,-680.74 969.86,-680.74 1048.5,-680.74 1067.35,-564.1 1071.78,-500.68"/>
<polygon fill="black" stroke="black" points="1075.26,-501.2 1072.36,-491.01 1068.27,-500.78 1075.26,-501.2"/>
<text xml:space="preserve" text-anchor="middle" x="766.44" y="-683.94" font-family="Times New Roman,serif" font-size="14.00">&#39;r&#39;</text>
</g>
<!-- q12 -->
<g id="node15" class="node">
<title>q12</title>
<ellipse fill="none" stroke="black" cx="301.54" cy="-627.74" rx="24.74" ry="24.74"/>
<text xml:space="preserve" text-anchor="middle" x="301.54" y="-622.69" font-family="Times New Roman,serif" font-size="14.00">q12</text>
</g>
<!-- q11&#45;&gt;q12 -->
<g id="edge14" class="edge">
<title>q11&#45;&gt;q12</title>
<path fill="none" stroke="black" d="M191.36,-612.13C212.06,-615.09 242.34,-619.42 265.77,-622.77"/>
<polygon fill="black" stroke="black" points="265.08,-626.21 275.48,-624.16 266.07,-619.28 265.08,-626.21"/>
<text xml:space="preserve" text-anchor="middle" x="234.06" y="-624.79" font-family="Times New Roman,serif" font-size="14.00">&#39;e&#39;</text>
</g>
<!-- q13 -->
<g id="node16" class="node">
<title>q13</title>
<ellipse fill="none" stroke="black" cx="436.49" cy="-627.74" rx="24.74" ry="24.74"/>
<text xml:space="preserve" text-anchor="middle" x="436.49" y="-622.69" font-family="Times New Roman,serif" font-size="14.00">q13</text>
</g>
<!-- q12&#45;&gt;q13 -->
<g id="edge20" class="edge">
<title>q12&#45;&gt;q13</title>
<path fill="none" stroke="black" d="M326.61,-627.74C347.13,-627.74 376.9,-627.74 400.12,-627.74"/>
<polygon fill="black" stroke="black" points="400.08,-631.24 410.08,-627.74 400.08,-624.24 400.08,-631.24"/>
<text xml:space="preserve" text-anchor="middle" x="369.01" y="-630.94" font-family="Times New Roman,serif" font-size="14.00">&#39;g&#39;</text>
</g>
<!-- q14 -->
<g id="node17" class="node">
<title>q14</title>
<ellipse fill="none" stroke="black" cx="766.44" cy="-632.74" rx="24.74" ry="24.74"/>
<text xml:space="preserve" text-anchor="middle" x="766.44" y="-627.69" font-family="Times New Roman,serif" font-size="14.00">q14</text>
</g>
<!-- q13&#45;&gt;q14 -->
<g id="edge23" class="edge">
<title>q13&#45;&gt;q14</title>
<path fill="none" stroke="black" d="M461.6,-628.11C518.81,-628.98 662.98,-631.18 730.07,-632.2"/>
<polygon fill="black" stroke="black" points="729.72,-635.69 739.77,-632.35 729.83,-628.69 729.72,-635.69"/>
<text xml:space="preserve" text-anchor="middle" x="567.72" y="-634.18" font-family="Times New Roman,serif" font-size="14.00">&#39;i&#39;</text>
</g>
<!-- q14&#45;&gt;q35 -->
<g id="edge28" class="edge">
<title>q14&#45;&gt;q35</title>
<path fill="none" stroke="black" d="M791.2,-634.82C848.34,-639.32 991.35,-647.34 1027.35,-618.74 1062.35,-590.93 1071.65,-538.04 1073.59,-501.15"/>
<polygon fill="black" stroke="black" points="1077.08,-501.41 1073.93,-491.3 1070.08,-501.17 1077.08,-501.41"/>
<text xml:space="preserve" text-anchor="middle" x="901.39" y="-642.58" font-family="Times New Roman,serif" font-size="14.00">&#39;n&#39;</text>
</g>
<!-- q15&#45;&gt;q35 -->
<g id="edge15" class="edge">
<title>q15&#45;&gt;q35</title>
<path fill="none" stroke="black" d="M258.94,-568.77C365.08,-577.57 794.62,-610.8 926.12,-583.74 976.69,-573.33 992.45,-564.79 1027.35,-526.74 1036.29,-516.98 1044.89,-505.39 1052.18,-494.66"/>
<polygon fill="black" stroke="black" points="1055.05,-496.66 1057.63,-486.39 1049.2,-492.81 1055.05,-496.66"/>
<text xml:space="preserve" text-anchor="middle" x="698.96" y="-597.09" font-family="Times New Roman,serif" font-size="14.00">&#39;e&#39;</text>
</g>
<!-- q16&#45;&gt;q35 -->
<g id="edge21" class="edge">
<title>q16&#45;&gt;q35</title>
<path fill="none" stroke="black" d="M720.51,-530.23C727.06,-533.61 734.48,-536.85 741.7,-538.74 850.09,-567.03 893.56,-580.15 993.6,-529.74 1013.24,-519.84 1031.99,-503.99 1046.33,-489.98"/>
<polygon fill="black" stroke="black" points="1048.63,-492.64 1053.18,-483.08 1043.66,-487.71 1048.63,-492.64"/>
<text xml:space="preserve" text-anchor="middle" x="901.39" y="-566.93" font-family="Times New Roman,serif" font-size="14.00">&#39;g&#39;</text>
</g>
<!-- q17 -->
<g id="node20" class="node">
<title>q17</title>
<ellipse fill="none" stroke="black" cx="901.39" cy="-518.74" rx="24.74" ry="24.74"/>
<text xml:space="preserve" text-anchor="middle" x="901.39" y="-513.69" font-family="Times New Roman,serif" font-size="14.00">q17</text>
</g>
<!-- q16&#45;&gt;q17 -->
<g id="edge29" class="edge">
<title>q16&#45;&gt;q17</title>
<path fill="none" stroke="black" d="M724.14,-517.86C759.22,-518.03 824.46,-518.36 864.97,-518.56"/>
<polygon fill="black" stroke="black" points="864.91,-522.06 874.92,-518.61 864.94,-515.06 864.91,-522.06"/>
<text xml:space="preserve" text-anchor="middle" x="766.44" y="-521.37" font-family="Times New Roman,serif" font-size="14.00">&#39;n&#39;</text>
</g>
<!-- q18 -->
<g id="node21" class="node">
<title>q18</title>
<ellipse fill="none" stroke="black" cx="833.91" cy="-463.74" rx="24.74" ry="24.74"/>
<text xml:space="preserve" text-anchor="middle" x="833.91" y="-458.69" font-family="Times New Roman,serif" font-size="14.00">q18</text>
</g>
<!-- q16&#45;&gt;q18 -->
<g id="edge25" class="edge">
<title>q16&#45;&gt;q18</title>
<path fill="none" stroke="black" d="M715.81,-499.66C723.02,-492.54 732.08,-484.95 741.7,-480.24 759.04,-471.74 780.17,-467.59 797.72,-465.57"/>
<polygon fill="black" stroke="black" points="797.81,-469.07 807.43,-464.65 797.15,-462.11 797.81,-469.07"/>
<text xml:space="preserve" text-anchor="middle" x="766.44" y="-483.44" font-family="Times New Roman,serif" font-size="14.00">&#39;l&#39;</text>
</g>
<!-- q17&#45;&gt;q35 -->
<g id="edge12" class="edge">
<title>q17&#45;&gt;q35</title>
<path fill="none" stroke="black" d="M925.83,-513.32C944.38,-508.86 970.85,-502.09 993.6,-494.74 1008.89,-489.8 1012.54,-487.98 1027.35,-481.74 1030.55,-480.39 1033.85,-478.95 1037.16,-477.49"/>
<polygon fill="black" stroke="black" points="1038.51,-480.72 1046.19,-473.42 1035.63,-474.34 1038.51,-480.72"/>
<text xml:space="preserve" text-anchor="middle" x="968.86" y="-511.95" font-family="Times New Roman,serif" font-size="14.00">&#39;d&#39;</text>
</g>
<!-- q19 -->
<g id="node22" class="node">
<title>q19</title>
<ellipse fill="none" stroke="black" cx="968.86" cy="-460.74" rx="24.74" ry="24.74"/>
<text xml:space="preserve" text-anchor="middle" x="968.86" y="-455.69" font-family="Times New Roman,serif" font-size="14.00">q19</text>
</g>
<!-- q18&#45;&gt;q19 -->
<g id="edge41" class="edge">
<title>q18&#45;&gt;q19</title>
<path fill="none" stroke="black" d="M858.99,-463.19C879.51,-462.73 909.27,-462.06 932.5,-461.54"/>
<polygon fill="black" stroke="black" points="932.53,-465.04 942.45,-461.31 932.37,-458.04 932.53,-465.04"/>
<text xml:space="preserve" text-anchor="middle" x="901.39" y="-465.97" font-family="Times New Roman,serif" font-size="14.00">&#39;s&#39;</text>
</g>
<!-- q19&#45;&gt;q35 -->
<g id="edge16" class="edge">
<title>q19&#45;&gt;q35</title>
<path fill="none" stroke="black" d="M994.06,-460.74C1005.86,-460.74 1020.35,-460.74 1033.69,-460.74"/>
<polygon fill="black" stroke="black" points="1033.5,-464.24 1043.5,-460.74 1033.5,-457.24 1033.5,-464.24"/>
<text xml:space="preserve" text-anchor="middle" x="1019.47" y="-463.94" font-family="Times New Roman,serif" font-size="14.00">&#39;e&#39;</text>
</g>
<!-- q20&#45;&gt;q35 -->
<g id="edge42" class="edge">
<title>q20&#45;&gt;q35</title>
<path fill="none" stroke="black" d="M723.96,-407.47C774.58,-405.38 895.69,-403.53 993.6,-426.74 1008.58,-430.29 1024.32,-436.45 1037.8,-442.57"/>
<polygon fill="black" stroke="black" points="1036.16,-445.66 1046.7,-446.76 1039.15,-439.33 1036.16,-445.66"/>
<text xml:space="preserve" text-anchor="middle" x="901.39" y="-417.6" font-family="Times New Roman,serif" font-size="14.00">&#39;t&#39;</text>
</g>
<!-- q21 -->
<g id="node24" class="node">
<title>q21</title>
<ellipse fill="none" stroke="black" cx="833.91" cy="-355.74" rx="24.74" ry="24.74"/>
<text xml:space="preserve" text-anchor="middle" x="833.91" y="-350.69" font-family="Times New Roman,serif" font-size="14.00">q21</text>
</g>
<!-- q20&#45;&gt;q21 -->
<g id="edge33" class="edge">
<title>q20&#45;&gt;q21</title>
<path fill="none" stroke="black" d="M718.51,-392.79C725.42,-387.52 733.57,-382.03 741.7,-378.24 759.52,-369.92 780.79,-364.45 798.31,-360.98"/>
<polygon fill="black" stroke="black" points="798.51,-364.51 807.71,-359.26 797.25,-357.62 798.51,-364.51"/>
<text xml:space="preserve" text-anchor="middle" x="766.44" y="-381.44" font-family="Times New Roman,serif" font-size="14.00">&#39;o&#39;</text>
</g>
<!-- q22 -->
<g id="node25" class="node">
<title>q22</title>
<ellipse fill="none" stroke="black" cx="968.86" cy="-354.74" rx="24.74" ry="24.74"/>
<text xml:space="preserve" text-anchor="middle" x="968.86" y="-349.69" font-family="Times New Roman,serif" font-size="14.00">q22</text>
</g>
<!-- q21&#45;&gt;q22 -->
<g id="edge43" class="edge">
<title>q21&#45;&gt;q22</title>
<path fill="none" stroke="black" d="M858.99,-355.56C879.51,-355.4 909.27,-355.18 932.5,-355"/>
<polygon fill="black" stroke="black" points="932.48,-358.5 942.45,-354.93 932.42,-351.5 932.48,-358.5"/>
<text xml:space="preserve" text-anchor="middle" x="901.39" y="-358.61" font-family="Times New Roman,serif" font-size="14.00">&#39;t&#39;</text>
</g>
<!-- q22&#45;&gt;q35 -->
<g id="edge34" class="edge">
<title>q22&#45;&gt;q35</title>
<path fill="none" stroke="black" d="M993.4,-359.94C1004.68,-363.36 1017.77,-368.81 1027.35,-377.24 1041.4,-389.59 1051.97,-407.35 1059.38,-423.31"/>
<polygon fill="black" stroke="black" points="1056,-424.31 1063.2,-432.08 1062.42,-421.52 1056,-424.31"/>
<text xml:space="preserve" text-anchor="middle" x="1019.47" y="-380.44" font-family="Times New Roman,serif" font-size="14.00">&#39;o&#39;</text>
</g>
<!-- q24 -->
<g id="node27" class="node">
<title>q24</title>
<ellipse fill="none" stroke="black" cx="301.54" cy="-379.74" rx="24.74" ry="24.74"/>
<text xml:space="preserve" text-anchor="middle" x="301.54" y="-374.69" font-family="Times New Roman,serif" font-size="14.00">q24</text>
</g>
<!-- q23&#45;&gt;q24 -->
<g id="edge49" class="edge">
<title>q23&#45;&gt;q24</title>
<path fill="none" stroke="black" d="M191.66,-391.2C212.28,-389.03 242.22,-385.88 265.49,-383.43"/>
<polygon fill="black" stroke="black" points="265.56,-386.94 275.13,-382.41 264.82,-379.98 265.56,-386.94"/>
<text xml:space="preserve" text-anchor="middle" x="234.06" y="-392.41" font-family="Times New Roman,serif" font-size="14.00">&#39;u&#39;</text>
</g>
<!-- q25 -->
<g id="node28" class="node">
<title>q25</title>
<ellipse fill="none" stroke="black" cx="436.49" cy="-367.74" rx="24.74" ry="24.74"/>
<text xml:space="preserve" text-anchor="middle" x="436.49" y="-362.69" font-family="Times New Roman,serif" font-size="14.00">q25</text>
</g>
<!-- q24&#45;&gt;q25 -->
<g id="edge44" class="edge">
<title>q24&#45;&gt;q25</title>
<path fill="none" stroke="black" d="M326.61,-377.56C347.13,-375.71 376.9,-373.03 400.12,-370.93"/>
<polygon fill="black" stroke="black" points="400.44,-374.42 410.08,-370.03 399.81,-367.44 400.44,-374.42"/>
<text xml:space="preserve" text-anchor="middle" x="369.01" y="-379.06" font-family="Times New Roman,serif" font-size="14.00">&#39;t&#39;</text>
</g>
<!-- q26 -->
<g id="node29" class="node">
<title>q26</title>
<ellipse fill="none" stroke="black" cx="698.96" cy="-325.74" rx="24.74" ry="24.74"/>
<text xml:space="preserve" text-anchor="middle" x="698.96" y="-320.69" font-family="Times New Roman,serif" font-size="14.00">q26</text>
</g>
<!-- q25&#45;&gt;q26 -->
<g id="edge36" class="edge">
<title>q25&#45;&gt;q26</title>
<path fill="none" stroke="black" d="M461.06,-363.94C507.15,-356.51 609.37,-340.02 663.22,-331.34"/>
<polygon fill="black" stroke="black" points="663.44,-334.85 672.76,-329.8 662.33,-327.94 663.44,-334.85"/>
<text xml:space="preserve" text-anchor="middle" x="567.72" y="-363.9" font-family="Times New Roman,serif" font-size="14.00">&#39;p&#39;</text>
</g>
<!-- q27 -->
<g id="node30" class="node">
<title>q27</title>
<ellipse fill="none" stroke="black" cx="901.39" cy="-298.74" rx="24.74" ry="24.74"/>
<text xml:space="preserve" text-anchor="middle" x="901.39" y="-293.69" font-family="Times New Roman,serif" font-size="14.00">q27</text>
</g>
<!-- q26&#45;&gt;q27 -->
<g id="edge50" class="edge">
<title>q26&#45;&gt;q27</title>
<path fill="none" stroke="black" d="M723.74,-322.53C758.85,-317.8 824.77,-308.92 865.4,-303.45"/>
<polygon fill="black" stroke="black" points="865.7,-306.94 875.14,-302.14 864.76,-300.01 865.7,-306.94"/>
<text xml:space="preserve" text-anchor="middle" x="766.44" y="-323.11" font-family="Times New Roman,serif" font-size="14.00">&#39;u&#39;</text>
</g>
<!-- q27&#45;&gt;q35 -->
<g id="edge45" class="edge">
<title>q27&#45;&gt;q35</title>
<path fill="none" stroke="black" d="M925.94,-294.35C945.52,-291.98 973.36,-291.72 993.6,-304.24 1034.82,-329.73 1055.5,-383.95 1065.26,-421.37"/>
<polygon fill="black" stroke="black" points="1061.81,-422.03 1067.58,-430.92 1068.62,-420.37 1061.81,-422.03"/>
<text xml:space="preserve" text-anchor="middle" x="968.86" y="-307.44" font-family="Times New Roman,serif" font-size="14.00">&#39;t&#39;</text>
</g>
<!-- q28&#45;&gt;q35 -->
<g id="edge17" class="edge">
<title>q28&#45;&gt;q35</title>
<path fill="none" stroke="black" d="M461.6,-255.86C533.08,-250.79 749.83,-239.09 926.12,-267.74 957.12,-272.78 965.73,-274.26 993.6,-288.74 1010.4,-297.47 1016.52,-299.21 1027.35,-314.74 1049.58,-346.61 1061.34,-389.74 1067.33,-420.85"/>
<polygon fill="black" stroke="black" points="1063.88,-421.42 1069.09,-430.65 1070.77,-420.18 1063.88,-421.42"/>
<text xml:space="preserve" text-anchor="middle" x="833.91" y="-261.78" font-family="Times New Roman,serif" font-size="14.00">&#39;f&#39;</text>
</g>
<!-- q29 -->
<g id="node32" class="node">
<title>q29</title>
<ellipse fill="none" stroke="black" cx="698.96" cy="-204.74" rx="24.74" ry="24.74"/>
<text xml:space="preserve" text-anchor="middle" x="698.96" y="-199.69" font-family="Times New Roman,serif" font-size="14.00">q29</text>
</g>
<!-- q28&#45;&gt;q29 -->
<g id="edge30" class="edge">
<title>q28&#45;&gt;q29</title>
<path fill="none" stroke="black" d="M455.35,-241.47C462.32,-236.03 470.68,-230.52 479.22,-227.24 540.59,-203.66 618.38,-201.62 662.73,-202.81"/>
<polygon fill="black" stroke="black" points="662.41,-206.3 672.53,-203.16 662.66,-199.31 662.41,-206.3"/>
<text xml:space="preserve" text-anchor="middle" x="567.72" y="-230.44" font-family="Times New Roman,serif" font-size="14.00">&#39;n&#39;</text>
</g>
<!-- q29&#45;&gt;q35 -->
<g id="edge46" class="edge">
<title>q29&#45;&gt;q35</title>
<path fill="none" stroke="black" d="M724.1,-203.41C792.15,-200.22 983.45,-195.12 1027.35,-235.74 1053.83,-260.24 1065.73,-362.6 1070.43,-420.45"/>
<polygon fill="black" stroke="black" points="1066.92,-420.53 1071.18,-430.23 1073.9,-419.99 1066.92,-420.53"/>
<text xml:space="preserve" text-anchor="middle" x="901.39" y="-209.28" font-family="Times New Roman,serif" font-size="14.00">&#39;t&#39;</text>
</g>
<!-- q30 -->
<g id="node33" class="node">
<title>q30</title>
<ellipse fill="none" stroke="black" cx="833.91" cy="-158.74" rx="24.74" ry="24.74"/>
<text xml:space="preserve" text-anchor="middle" x="833.91" y="-153.69" font-family="Times New Roman,serif" font-size="14.00">q30</text>
</g>
<!-- q29&#45;&gt;q30 -->
<g id="edge37" class="edge">
<title>q29&#45;&gt;q30</title>
<path fill="none" stroke="black" d="M720.22,-191.88C726.87,-188.05 734.43,-184.12 741.7,-181.24 759.69,-174.11 780.59,-168.76 797.84,-165.06"/>
<polygon fill="black" stroke="black" points="798.54,-168.49 807.64,-163.07 797.14,-161.63 798.54,-168.49"/>
<text xml:space="preserve" text-anchor="middle" x="766.44" y="-184.44" font-family="Times New Roman,serif" font-size="14.00">&#39;p&#39;</text>
</g>
<!-- q31 -->
<g id="node34" class="node">
<title>q31</title>
<ellipse fill="none" stroke="black" cx="968.86" cy="-158.74" rx="24.74" ry="24.74"/>
<text xml:space="preserve" text-anchor="middle" x="968.86" y="-153.69" font-family="Times New Roman,serif" font-size="14.00">q31</text>
</g>
<!-- q30&#45;&gt;q31 -->
<g id="edge51" class="edge">
<title>q30&#45;&gt;q31</title>
<path fill="none" stroke="black" d="M858.99,-158.74C879.51,-158.74 909.27,-158.74 932.5,-158.74"/>
<polygon fill="black" stroke="black" points="932.45,-162.24 942.45,-158.74 932.45,-155.24 932.45,-162.24"/>
<text xml:space="preserve" text-anchor="middle" x="901.39" y="-161.94" font-family="Times New Roman,serif" font-size="14.00">&#39;u&#39;</text>
</g>
<!-- q31&#45;&gt;q35 -->
<g id="edge47" class="edge">
<title>q31&#45;&gt;q35</title>
<path fill="none" stroke="black" d="M993.58,-162.35C1005.46,-165.39 1019.06,-170.99 1027.35,-181.24 1056.57,-217.38 1067.58,-352.58 1071.33,-420.82"/>
<polygon fill="black" stroke="black" points="1067.82,-420.64 1071.84,-430.44 1074.81,-420.27 1067.82,-420.64"/>
<text xml:space="preserve" text-anchor="middle" x="1019.47" y="-184.44" font-family="Times New Roman,serif" font-size="14.00">&#39;t&#39;</text>
</g>
<!-- q32&#45;&gt;q35 -->
<g id="edge48" class="edge">
<title>q32&#45;&gt;q35</title>
<path fill="none" stroke="black" d="M791.03,-113.35C833.86,-104.82 926.16,-92.31 993.6,-124.74 1014.56,-134.82 1017.71,-143.57 1027.35,-164.74 1066.04,-249.75 1072.95,-361.19 1073.63,-420.12"/>
<polygon fill="black" stroke="black" points="1070.13,-420.03 1073.68,-430.01 1077.13,-419.99 1070.13,-420.03"/>
<text xml:space="preserve" text-anchor="middle" x="901.39" y="-109.07" font-family="Times New Roman,serif" font-size="14.00">&#39;t&#39;</text>
</g>
<!-- q33&#45;&gt;q35 -->
<g id="edge6" class="edge">
<title>q33&#45;&gt;q35</title>
<path fill="none" stroke="black" d="M393.91,-75.74C430.92,-72.82 504.32,-67.74 566.72,-67.74 566.72,-67.74 566.72,-67.74 969.86,-67.74 1008.43,-67.74 1011.22,-97.7 1027.35,-132.74 1050.56,-183.18 1064.79,-344.25 1070.37,-420.27"/>
<polygon fill="black" stroke="black" points="1066.87,-420.48 1071.08,-430.21 1073.86,-419.98 1066.87,-420.48"/>
<text xml:space="preserve" text-anchor="middle" x="766.44" y="-70.94" font-family="Times New Roman,serif" font-size="14.00">&#39;&amp;&#39;</text>
</g>
<!-- q34&#45;&gt;q35 -->
<g id="edge54" class="edge">
<title>q34&#45;&gt;q35</title>
<path fill="none" stroke="black" d="M926.27,-21.97C955.89,-20.07 1005.15,-22.25 1027.35,-53.74 1068.46,-112.07 1073.22,-329.17 1073.36,-420.18"/>
<polygon fill="black" stroke="black" points="1069.86,-420.14 1073.35,-430.14 1076.86,-420.14 1069.86,-420.14"/>
<text xml:space="preserve" text-anchor="middle" x="968.86" y="-32.33" font-family="Times New Roman,serif" font-size="14.00">&#39;|&#39;</text>
</g>
</g>
</svg>
