<?xml version="1.0" encoding="UTF-8" standalone="no"?>
<!DOCTYPE svg PUBLIC "-//W3C//DTD SVG 1.1//EN"
 "http://www.w3.org/Graphics/SVG/1.1/DTD/svg11.dtd">
<!-- Generated by graphviz version 14.0.5 (20251129.0259)
 -->
<!-- Title: FSM Pages: 1 -->
<svg width="6670pt" height="494pt"
 viewBox="0.00 0.00 6670.00 494.00" xmlns="http://www.w3.org/2000/svg" xmlns:xlink="http://www.w3.org/1999/xlink">
<g id="graph0" class="graph" transform="scale(1 1) rotate(0) translate(4 490.26)">
<title>FSM</title>
<polygon fill="white" stroke="none" points="-4,4 -4,-490.26 6665.86,-490.26 6665.86,4 -4,4"/>
<!-- start -->
<g id="node1" class="node">
<title>start</title>
<ellipse fill="black" stroke="black" cx="1.8" cy="-215.12" rx="1.8" ry="1.8"/>
</g>
<!-- q0 -->
<g id="node2" class="node">
<title>q0</title>
<ellipse fill="none" stroke="black" cx="67.6" cy="-215.12" rx="27" ry="18"/>
<text xml:space="preserve" text-anchor="middle" x="67.6" y="-210.07" font-family="Times New Roman,serif" font-size="14.00">q0</text>
</g>
<!-- start&#45;&gt;q0 -->
<g id="edge1" class="edge">
<title>start&#45;&gt;q0</title>
<path fill="none" stroke="black" d="M3.91,-215.12C7.21,-215.12 17.46,-215.12 28.73,-215.12"/>
<polygon fill="black" stroke="black" points="28.62,-218.62 38.62,-215.12 28.62,-211.62 28.62,-218.62"/>
</g>
<!-- q1 -->
<g id="node3" class="node">
<title>q1</title>
<ellipse fill="none" stroke="black" cx="3840.1" cy="-431.12" rx="20.13" ry="20.13"/>
<ellipse fill="none" stroke="black" cx="3840.1" cy="-431.12" rx="24.13" ry="24.13"/>
<text xml:space="preserve" text-anchor="middle" x="3840.1" y="-426.07" font-family="Times New Roman,serif" font-size="14.00">q1</text>
</g>
<!-- q0&#45;&gt;q1 -->
<g id="edge7" class="edge">
<title>q0&#45;&gt;q1</title>
<path fill="none" stroke="black" d="M67.93,-233.6C67.89,-265.53 72.99,-330.54 112.6,-361.12 289.63,-497.79 894.77,-392.65 1118.35,-398.12 2219.06,-425.03 3570.82,-430.29 3804.05,-431.02"/>
<polygon fill="black" stroke="black" points="3803.96,-434.52 3813.97,-431.05 3803.98,-427.52 3803.96,-434.52"/>
<text xml:space="preserve" text-anchor="middle" x="606.48" y="-434.81" font-family="Times New Roman,serif" font-size="14.00">&#39;&#45;&#39;</text>
</g>
<!-- q6 -->
<g id="node4" class="node">
<title>q6</title>
<ellipse fill="none" stroke="black" cx="3840.1" cy="-330.12" rx="20.13" ry="20.13"/>
<ellipse fill="none" stroke="black" cx="3840.1" cy="-330.12" rx="24.13" ry="24.13"/>
<text xml:space="preserve" text-anchor="middle" x="3840.1" y="-325.07" font-family="Times New Roman,serif" font-size="14.00">q6</text>
</g>
<!-- q0&#45;&gt;q6 -->
<g id="edge8" class="edge">
<title>q0&#45;&gt;q6</title>
<path fill="none" stroke="black" d="M74.19,-232.84C80.54,-249.66 92.69,-273.96 112.6,-285.12 282.64,-380.42 3435.45,-336.16 3804.03,-330.65"/>
<polygon fill="black" stroke="black" points="3804.04,-334.15 3813.99,-330.5 3803.93,-327.15 3804.04,-334.15"/>
<text xml:space="preserve" text-anchor="middle" x="606.48" y="-344.13" font-family="Times New Roman,serif" font-size="14.00">&#39;0&#39;,&#39;1&#39;,&#39;2&#39;,&#39;3&#39;,&#39;4&#39;,&#39;5&#39;,&#39;6&#39;,&#39;7&#39;,&#39;8&#39;,&#39;9&#39;,&#39;A&#39;,&#39;B&#39;,&#39;C&#39;,&#39;D&#39;,&#39;E&#39;,&#39;F&#39;,&#39;G&#39;,&#39;H&#39;,&#39;I&#39;,&#39;J&#39;,&#39;K&#39;,&#39;L&#39;,&#39;M&#39;,&#39;N&#39;,&#39;O&#39;,&#39;P&#39;,&#39;Q&#39;,&#39;R&#39;,&#39;S&#39;,&#39;T&#39;,&#39;U&#39;,&#39;V&#39;,&#39;W&#39;,&#39;X&#39;,&#39;Y&#39;,&#39;Z&#39;,&#39;_&#39;,&#39;a&#39;,&#39;b&#39;,&#39;c&#39;,&#39;d&#39;,&#39;e&#39;,&#39;f&#39;,&#39;g&#39;,&#39;h&#39;,&#39;i&#39;,&#39;j&#39;,&#39;k&#39;,&#39;l&#39;,&#39;m&#39;,&#39;n&#39;,&#39;o&#39;,&#39;p&#39;,&#39;q&#39;,&#39;r&#39;,&#39;s&#39;,&#39;t&#39;,&#39;u&#39;,&#39;v&#39;,&#39;w&#39;,&#39;x&#39;,&#39;y&#39;,&#39;z&#39;</text>
</g>
<!-- q7 -->
<g id="node5" class="node">
<title>q7</title>
<ellipse fill="none" stroke="black" cx="6637.73" cy="-190.12" rx="20.13" ry="20.13"/>
<ellipse fill="none" stroke="black" cx="6637.73" cy="-190.12" rx="24.13" ry="24.13"/>
<text xml:space="preserve" text-anchor="middle" x="6637.73" y="-185.07" font-family="Times New Roman,serif" font-size="14.00">q7</text>
</g>
<!-- q0&#45;&gt;q7 -->
<g id="edge2" class="edge">
<title>q0&#45;&gt;q7</title>
<path fill="none" stroke="black" d="M88.52,-226.89C95.83,-230.59 104.35,-234.21 112.6,-236.12 548.18,-336.56 671.34,-242.34 1118.35,-244.12 1269.56,-244.72 6417.96,-290.59 6561.85,-244.12 6580.37,-238.14 6598.16,-225.68 6611.76,-214.24"/>
<polygon fill="black" stroke="black" points="6613.71,-217.18 6618.91,-207.95 6609.09,-211.92 6613.71,-217.18"/>
<text xml:space="preserve" text-anchor="middle" x="3840.1" y="-268.1" font-family="Times New Roman,serif" font-size="14.00">0x01,0x02,0x03,0x04,0x05,0x06,0x07,0x08,0x0E,0x0F,0x10,0x11,0x12,0x13,0x14,0x15,0x16,0x17,0x18,0x19,0x1A,0x1B,0x1C,0x1D,0x1E,0x1F,&#39;&quot;&#39;,&#39;#&#39;,&#39;$&#39;,&#39;%&#39;,&#39;&#39;&#39;,&#39;(&#39;,&#39;)&#39;,&#39;*&#39;,&#39;+&#39;,&#39;,&#39;,&#39;.&#39;,&#39;/&#39;,&#39;:&#39;,&#39;;&#39;,&#39;=&#39;,&#39;&gt;&#39;,&#39;?&#39;,&#39;@&#39;,&#39;[&#39;,&#39;&#39;,&#39;]&#39;,&#39;^&#39;,&#39;`&#39;,&#39;{&#39;,&#39;}&#39;,&#39;~&#39;,0x7F,0x80,0x81,0x82,0x83,0x84,0x85,0x86,0x87,0x88,0x89,0x8A,0x8B,0x8C,0x8D,0x8E,0x8F,0x90,0x91,0x92,0x93,0x94,0x95,0x96,0x97,0x98,0x99,0x9A,0x9B,0x9C,0x9D,0x9E,0x9F,0xA0,0xA1,0xA2,0xA3,0xA4,0xA5,0xA6,0xA7,0xA8,0xA9,0xAA,0xAB,0xAC,0xAD,0xAE,0xAF,0xB0,0xB1,0xB2,0xB3,0xB4,0xB5,0xB6,0xB7,0xB8,0xB9,0xBA,0xBB,0xBC,0xBD,0xBE,0xBF,0xC0,0xC1,0xC2,0xC3,0xC4,0xC5,0xC6,0xC7,0xC8,0xC9,0xCA,0xCB,0xCC,0xCD,0xCE,0xCF,0xD0,0xD1,0xD2,0xD3,0xD4,0xD5,0xD6,0xD7,0xD8,0xD9,0xDA,0xDB,0xDC,0xDD,0xDE,0xDF,0xE0,0xE1,0xE2,0xE3,0xE4,0xE5,0xE6,0xE7,0xE8,0xE9,0xEA,0xEB,0xEC,0xED,0xEE,0xEF,0xF0,0xF1,0xF2,0xF3,0xF4,0xF5,0xF6,0xF7,0xF8,0xF9,0xFA,0xFB,0xFC,0xFD,0xFE,0xFF</text>
</g>
<!-- q2 -->
<g id="node6" class="node">
<title>q2</title>
<ellipse fill="none" stroke="black" cx="3840.1" cy="-215.12" rx="20.13" ry="20.13"/>
<text xml:space="preserve" text-anchor="middle" x="3840.1" y="-210.07" font-family="Times New Roman,serif" font-size="14.00">q2</text>
</g>
<!-- q0&#45;&gt;q2 -->
<g id="edge10" class="edge">
<title>q0&#45;&gt;q2</title>
<path fill="none" stroke="black" d="M94.95,-215.12C410.8,-215.12 3466.24,-215.12 3808.06,-215.12"/>
<polygon fill="black" stroke="black" points="3807.96,-218.62 3817.96,-215.12 3807.96,-211.62 3807.96,-218.62"/>
<text xml:space="preserve" text-anchor="middle" x="606.48" y="-218.32" font-family="Times New Roman,serif" font-size="14.00">&#39;&lt;&#39;</text>
</g>
<!-- q3 -->
<g id="node7" class="node">
<title>q3</title>
<ellipse fill="none" stroke="black" cx="3840.1" cy="-157.12" rx="20.13" ry="20.13"/>
<text xml:space="preserve" text-anchor="middle" x="3840.1" y="-152.07" font-family="Times New Roman,serif" font-size="14.00">q3</text>
</g>
<!-- q0&#45;&gt;q3 -->
<g id="edge3" class="edge">
<title>q0&#45;&gt;q3</title>
<path fill="none" stroke="black" d="M88.55,-203.63C95.87,-200.02 104.38,-196.48 112.6,-194.62 493.48,-108.23 3470.97,-151.44 3808.07,-156.63"/>
<polygon fill="black" stroke="black" points="3807.98,-160.13 3818.04,-156.78 3808.09,-153.13 3807.98,-160.13"/>
<text xml:space="preserve" text-anchor="middle" x="606.48" y="-197.82" font-family="Times New Roman,serif" font-size="14.00">&#39;!&#39;</text>
</g>
<!-- q4 -->
<g id="node8" class="node">
<title>q4</title>
<ellipse fill="none" stroke="black" cx="3840.1" cy="-99.12" rx="20.13" ry="20.13"/>
<text xml:space="preserve" text-anchor="middle" x="3840.1" y="-94.07" font-family="Times New Roman,serif" font-size="14.00">q4</text>
</g>
<!-- q0&#45;&gt;q4 -->
<g id="edge5" class="edge">
<title>q0&#45;&gt;q4</title>
<path fill="none" stroke="black" d="M71.72,-196.9C76.45,-175.6 87.67,-141.26 112.6,-125.62 195.53,-73.57 3455.19,-96.27 3808.19,-98.88"/>
<polygon fill="black" stroke="black" points="3807.98,-102.38 3818,-98.96 3808.03,-95.38 3807.98,-102.38"/>
<text xml:space="preserve" text-anchor="middle" x="606.48" y="-128.82" font-family="Times New Roman,serif" font-size="14.00">&#39;&amp;&#39;</text>
</g>
<!-- q5 -->
<g id="node9" class="node">
<title>q5</title>
<ellipse fill="none" stroke="black" cx="3840.1" cy="-41.12" rx="20.13" ry="20.13"/>
<text xml:space="preserve" text-anchor="middle" x="3840.1" y="-36.07" font-family="Times New Roman,serif" font-size="14.00">q5</text>
</g>
<!-- q0&#45;&gt;q5 -->
<g id="edge13" class="edge">
<title>q0&#45;&gt;q5</title>
<path fill="none" stroke="black" d="M68.09,-196.7C68.37,-165.6 74,-103.24 112.6,-74.62 269.76,41.95 3458.42,-31.89 3808.06,-40.35"/>
<polygon fill="black" stroke="black" points="3807.91,-43.85 3817.99,-40.59 3808.08,-36.85 3807.91,-43.85"/>
<text xml:space="preserve" text-anchor="middle" x="606.48" y="-77.82" font-family="Times New Roman,serif" font-size="14.00">&#39;|&#39;</text>
</g>
<!-- q1&#45;&gt;q7 -->
<g id="edge11" class="edge">
<title>q1&#45;&gt;q7</title>
<path fill="none" stroke="black" d="M3864.45,-432.42C4116.55,-446.34 6329.63,-563.44 6561.85,-398.12 6617.19,-358.72 6631.8,-274.37 6635.55,-226.06"/>
<polygon fill="black" stroke="black" points="6639.04,-226.32 6636.19,-216.11 6632.05,-225.87 6639.04,-226.32"/>
<text xml:space="preserve" text-anchor="middle" x="6587.73" y="-381.64" font-family="Times New Roman,serif" font-size="14.00">&#39;&gt;&#39;</text>
</g>
<!-- q6&#45;&gt;q6 -->
<g id="edge9" class="edge">
<title>q6&#45;&gt;q6</title>
<path fill="none" stroke="black" d="M3815.74,-330.63C3153.29,-344.83 3161.41,-372.25 3840.1,-372.25 4514.98,-372.25 4526.8,-345.13 3875.55,-330.87"/>
<polygon fill="black" stroke="black" points="3876.04,-327.38 3865.97,-330.66 3875.89,-334.37 3876.04,-327.38"/>
<text xml:space="preserve" text-anchor="middle" x="3840.1" y="-375.45" font-family="Times New Roman,serif" font-size="14.00">&#39;0&#39;,&#39;1&#39;,&#39;2&#39;,&#39;3&#39;,&#39;4&#39;,&#39;5&#39;,&#39;6&#39;,&#39;7&#39;,&#39;8&#39;,&#39;9&#39;,&#39;A&#39;,&#39;B&#39;,&#39;C&#39;,&#39;D&#39;,&#39;E&#39;,&#39;F&#39;,&#39;G&#39;,&#39;H&#39;,&#39;I&#39;,&#39;J&#39;,&#39;K&#39;,&#39;L&#39;,&#39;M&#39;,&#39;N&#39;,&#39;O&#39;,&#39;P&#39;,&#39;Q&#39;,&#39;R&#39;,&#39;S&#39;,&#39;T&#39;,&#39;U&#39;,&#39;V&#39;,&#39;W&#39;,&#39;X&#39;,&#39;Y&#39;,&#39;Z&#39;,&#39;_&#39;,&#39;a&#39;,&#39;b&#39;,&#39;c&#39;,&#39;d&#39;,&#39;e&#39;,&#39;f&#39;,&#39;g&#39;,&#39;h&#39;,&#39;i&#39;,&#39;j&#39;,&#39;k&#39;,&#39;l&#39;,&#39;m&#39;,&#39;n&#39;,&#39;o&#39;,&#39;p&#39;,&#39;q&#39;,&#39;r&#39;,&#39;s&#39;,&#39;t&#39;,&#39;u&#39;,&#39;v&#39;,&#39;w&#39;,&#39;x&#39;,&#39;y&#39;,&#39;z&#39;</text>
</g>
<!-- q2&#45;&gt;q7 -->
<g id="edge12" class="edge">
<title>q2&#45;&gt;q7</title>
<path fill="none" stroke="black" d="M3860.45,-214.94C4090.38,-212.89 6298.19,-193.14 6602.11,-190.43"/>
<polygon fill="black" stroke="black" points="6601.78,-193.93 6611.75,-190.34 6601.72,-186.93 6601.78,-193.93"/>
<text xml:space="preserve" text-anchor="middle" x="6587.73" y="-193.77" font-family="Times New Roman,serif" font-size="14.00">&#39;&gt;&#39;</text>
</g>
<!-- q3&#45;&gt;q7 -->
<g id="edge4" class="edge">
<title>q3&#45;&gt;q7</title>
<path fill="none" stroke="black" d="M3860.56,-156.66C4091.92,-151.38 6313.4,-102.51 6595.6,-169.62 6599.17,-170.46 6602.79,-171.67 6606.31,-173.08"/>
<polygon fill="black" stroke="black" points="6604.59,-176.13 6615.13,-177.12 6607.5,-169.77 6604.59,-176.13"/>
<text xml:space="preserve" text-anchor="middle" x="6587.73" y="-172.82" font-family="Times New Roman,serif" font-size="14.00">&#39;!&#39;</text>
</g>
<!-- q4&#45;&gt;q7 -->
<g id="edge6" class="edge">
<title>q4&#45;&gt;q7</title>
<path fill="none" stroke="black" d="M3860.71,-98.67C4091.54,-93.49 6287.34,-46.52 6561.85,-128.12 6582.21,-134.17 6600.66,-149.26 6614.14,-163.04"/>
<polygon fill="black" stroke="black" points="6611.47,-165.3 6620.84,-170.24 6616.6,-160.54 6611.47,-165.3"/>
<text xml:space="preserve" text-anchor="middle" x="6587.73" y="-148.54" font-family="Times New Roman,serif" font-size="14.00">&#39;&amp;&#39;</text>
</g>
<!-- q5&#45;&gt;q7 -->
<g id="edge14" class="edge">
<title>q5&#45;&gt;q7</title>
<path fill="none" stroke="black" d="M3860.51,-40.28C4091.3,-30.46 6306.6,60.06 6561.85,-70.12 6595.51,-87.28 6615.75,-127.15 6626.55,-156.24"/>
<polygon fill="black" stroke="black" points="6623.14,-157.08 6629.74,-165.36 6629.75,-154.77 6623.14,-157.08"/>
<text xml:space="preserve" text-anchor="middle" x="6587.73" y="-99.65" font-family="Times New Roman,serif" font-size="14.00">&#39;|&#39;</text>
</g>
</g>
</svg>
