<?xml version="1.0" encoding="UTF-8" standalone="no"?>
<!DOCTYPE svg PUBLIC "-//W3C//DTD SVG 1.1//EN"
 "http://www.w3.org/Graphics/SVG/1.1/DTD/svg11.dtd">
<!-- Generated by graphviz version 14.0.5 (20251129.0259)
 -->
<!-- Title: FSM Pages: 1 -->
<svg width="1089pt" height="1049pt"
 viewBox="0.00 0.00 1089.00 1049.00" xmlns="http://www.w3.org/2000/svg" xmlns:xlink="http://www.w3.org/1999/xlink">
<g id="graph0" class="graph" transform="scale(1 1) rotate(0) translate(4 1044.87)">
<title>FSM</title>
<polygon fill="white" stroke="none" points="-4,4 -4,-1044.87 1085.36,-1044.87 1085.36,4 -4,4"/>
<!-- start -->
<g id="node1" class="node">
<title>start</title>
<ellipse fill="black" stroke="black" cx="1.8" cy="-586.74" rx="1.8" ry="1.8"/>
</g>
<!-- q0 -->
<g id="node2" class="node">
<title>q0</title>
<ellipse fill="none" stroke="black" cx="67.6" cy="-586.74" rx="27" ry="18"/>
<text xml:space="preserve" text-anchor="middle" x="67.6" y="-581.69" font-family="Times New Roman,serif" font-size="14.00">q0</text>
</g>
<!-- start&#45;&gt;q0 -->
<g id="edge1" class="edge">
<title>start&#45;&gt;q0</title>
<path fill="none" stroke="black" d="M3.91,-586.74C7.21,-586.74 17.46,-586.74 28.73,-586.74"/>
<polygon fill="black" stroke="black" points="28.62,-590.24 38.62,-586.74 28.62,-583.24 28.62,-590.24"/>
</g>
<!-- q1 -->
<g id="node3" class="node">
<title>q1</title>
<ellipse fill="none" stroke="black" cx="239.46" cy="-1016.74" rx="20.13" ry="20.13"/>
<ellipse fill="none" stroke="black" cx="239.46" cy="-1016.74" rx="24.13" ry="24.13"/>
<text xml:space="preserve" text-anchor="middle" x="239.46" y="-1011.69" font-family="Times New Roman,serif" font-size="14.00">q1</text>
</g>
<!-- q0&#45;&gt;q1 -->
<g id="edge7" class="edge">
<title>q0&#45;&gt;q1</title>
<path fill="none" stroke="black" d="M69.38,-605.04C72.71,-679.72 86.83,-958.76 112.6,-987.74 135.12,-1013.07 174.93,-1018.6 203.76,-1018.87"/>
<polygon fill="black" stroke="black" points="203.51,-1022.38 213.46,-1018.75 203.42,-1015.38 203.51,-1022.38"/>
<text xml:space="preserve" text-anchor="middle" x="121.22" y="-1004.82" font-family="Times New Roman,serif" font-size="14.00">&#39;&#45;&#39;</text>
</g>
<!-- q48 -->
<g id="node4" class="node">
<title>q48</title>
<ellipse fill="none" stroke="black" cx="1052.62" cy="-506.74" rx="24.74" ry="24.74"/>
<ellipse fill="none" stroke="black" cx="1052.62" cy="-506.74" rx="28.74" ry="28.74"/>
<text xml:space="preserve" text-anchor="middle" x="1052.62" y="-501.69" font-family="Times New Roman,serif" font-size="14.00">q48</text>
</g>
<!-- q0&#45;&gt;q48 -->
<g id="edge6" class="edge">
<title>q0&#45;&gt;q48</title>
<path fill="none" stroke="black" d="M69.32,-605.05C72.02,-666.7 82.89,-865.95 112.6,-921.74 129.03,-952.58 136.64,-973.74 171.59,-973.74 171.59,-973.74 171.59,-973.74 946.9,-973.74 1034.07,-973.74 1048.7,-660.01 1051.14,-546.84"/>
<polygon fill="black" stroke="black" points="1054.63,-547.18 1051.33,-537.11 1047.63,-547.04 1054.63,-547.18"/>
<text xml:space="preserve" text-anchor="middle" x="558.64" y="-976.94" font-family="Times New Roman,serif" font-size="14.00">&#39;(&#39;,&#39;)&#39;,&#39;*&#39;,&#39;+&#39;,&#39;,&#39;,&#39;;&#39;,&#39;=&#39;,&#39;[&#39;,&#39;]&#39;,&#39;{&#39;,&#39;}&#39;</text>
</g>
<!-- q2 -->
<g id="node5" class="node">
<title>q2</title>
<ellipse fill="none" stroke="black" cx="558.64" cy="-928.74" rx="20.13" ry="20.13"/>
<text xml:space="preserve" text-anchor="middle" x="558.64" y="-923.69" font-family="Times New Roman,serif" font-size="14.00">q2</text>
</g>
<!-- q0&#45;&gt;q2 -->
<g id="edge9" class="edge">
<title>q0&#45;&gt;q2</title>
<path fill="none" stroke="black" d="M69.04,-604.84C70.79,-663.9 78.92,-849.93 112.6,-897.74 129.66,-921.95 141.97,-928.74 171.59,-928.74 171.59,-928.74 171.59,-928.74 374.8,-928.74 428.27,-928.74 490.54,-928.74 526.88,-928.74"/>
<polygon fill="black" stroke="black" points="526.64,-932.24 536.64,-928.74 526.64,-925.24 526.64,-932.24"/>
<text xml:space="preserve" text-anchor="middle" x="239.46" y="-931.94" font-family="Times New Roman,serif" font-size="14.00">&#39;&lt;&#39;</text>
</g>
<!-- q3 -->
<g id="node6" class="node">
<title>q3</title>
<ellipse fill="none" stroke="black" cx="743.47" cy="-883.74" rx="20.13" ry="20.13"/>
<text xml:space="preserve" text-anchor="middle" x="743.47" y="-878.69" font-family="Times New Roman,serif" font-size="14.00">q3</text>
</g>
<!-- q0&#45;&gt;q3 -->
<g id="edge2" class="edge">
<title>q0&#45;&gt;q3</title>
<path fill="none" stroke="black" d="M69.58,-605.09C72.72,-658.36 84.11,-811.76 112.6,-851.74 129.91,-876.03 141.76,-883.74 171.59,-883.74 171.59,-883.74 171.59,-883.74 559.64,-883.74 613.11,-883.74 675.38,-883.74 711.71,-883.74"/>
<polygon fill="black" stroke="black" points="711.48,-887.24 721.48,-883.74 711.48,-880.24 711.48,-887.24"/>
<text xml:space="preserve" text-anchor="middle" x="306.32" y="-886.94" font-family="Times New Roman,serif" font-size="14.00">&#39;!&#39;</text>
</g>
<!-- q4 -->
<g id="node7" class="node">
<title>q4</title>
<ellipse fill="none" stroke="black" cx="878.42" cy="-844.74" rx="20.13" ry="20.13"/>
<text xml:space="preserve" text-anchor="middle" x="878.42" y="-839.69" font-family="Times New Roman,serif" font-size="14.00">q4</text>
</g>
<!-- q0&#45;&gt;q4 -->
<g id="edge4" class="edge">
<title>q0&#45;&gt;q4</title>
<path fill="none" stroke="black" d="M68.43,-605.17C68.99,-641.16 74.74,-721.86 112.6,-774.74 142.05,-815.87 165.81,-813.38 215.32,-823.74 453.93,-873.64 751.31,-855.3 846.56,-847.52"/>
<polygon fill="black" stroke="black" points="846.72,-851.02 856.4,-846.69 846.14,-844.04 846.72,-851.02"/>
<text xml:space="preserve" text-anchor="middle" x="373.8" y="-852.27" font-family="Times New Roman,serif" font-size="14.00">&#39;&amp;&#39;</text>
</g>
<!-- q5 -->
<g id="node8" class="node">
<title>q5</title>
<ellipse fill="none" stroke="black" cx="239.46" cy="-797.74" rx="20.13" ry="20.13"/>
<text xml:space="preserve" text-anchor="middle" x="239.46" y="-792.69" font-family="Times New Roman,serif" font-size="14.00">q5</text>
</g>
<!-- q0&#45;&gt;q5 -->
<g id="edge68" class="edge">
<title>q0&#45;&gt;q5</title>
<path fill="none" stroke="black" d="M70.62,-605.02C75.84,-642.93 93.43,-730.07 147.85,-772.74 165,-786.18 188.91,-792.4 207.86,-795.28"/>
<polygon fill="black" stroke="black" points="207.33,-798.74 217.69,-796.51 208.2,-791.79 207.33,-798.74"/>
<text xml:space="preserve" text-anchor="middle" x="121.22" y="-757.26" font-family="Times New Roman,serif" font-size="14.00">&#39;|&#39;</text>
</g>
<!-- q6 -->
<g id="node9" class="node">
<title>q6</title>
<ellipse fill="none" stroke="black" cx="172.59" cy="-743.74" rx="20.13" ry="20.13"/>
<text xml:space="preserve" text-anchor="middle" x="172.59" y="-738.69" font-family="Times New Roman,serif" font-size="14.00">q6</text>
</g>
<!-- q0&#45;&gt;q6 -->
<g id="edge44" class="edge">
<title>q0&#45;&gt;q6</title>
<path fill="none" stroke="black" d="M78.05,-603.85C86.73,-619.39 100.12,-642.85 112.6,-662.74 127.44,-686.39 131.16,-692.36 147.85,-714.74 149.13,-716.46 150.48,-718.22 151.85,-719.98"/>
<polygon fill="black" stroke="black" points="148.83,-721.8 157.81,-727.41 154.29,-717.42 148.83,-721.8"/>
<text xml:space="preserve" text-anchor="middle" x="121.22" y="-692.41" font-family="Times New Roman,serif" font-size="14.00">&#39;P&#39;</text>
</g>
<!-- q12 -->
<g id="node15" class="node">
<title>q12</title>
<ellipse fill="none" stroke="black" cx="172.59" cy="-680.74" rx="24.74" ry="24.74"/>
<text xml:space="preserve" text-anchor="middle" x="172.59" y="-675.69" font-family="Times New Roman,serif" font-size="14.00">q12</text>
</g>
<!-- q0&#45;&gt;q12 -->
<g id="edge65" class="edge">
<title>q0&#45;&gt;q12</title>
<path fill="none" stroke="black" d="M84.24,-601.01C100.44,-615.8 126.04,-639.17 145.35,-656.79"/>
<polygon fill="black" stroke="black" points="142.85,-659.25 152.6,-663.41 147.57,-654.08 142.85,-659.25"/>
<text xml:space="preserve" text-anchor="middle" x="121.22" y="-645.36" font-family="Times New Roman,serif" font-size="14.00">&#39;V&#39;</text>
</g>
<!-- q14 -->
<g id="node17" class="node">
<title>q14</title>
<ellipse fill="none" stroke="black" cx="172.59" cy="-613.74" rx="24.74" ry="24.74"/>
<text xml:space="preserve" text-anchor="middle" x="172.59" y="-608.69" font-family="Times New Roman,serif" font-size="14.00">q14</text>
</g>
<!-- q0&#45;&gt;q14 -->
<g id="edge15" class="edge">
<title>q0&#45;&gt;q14</title>
<path fill="none" stroke="black" d="M93.27,-593.2C106.42,-596.65 122.8,-600.95 137.18,-604.72"/>
<polygon fill="black" stroke="black" points="136.16,-608.07 146.72,-607.22 137.93,-601.3 136.16,-608.07"/>
<text xml:space="preserve" text-anchor="middle" x="121.22" y="-605.86" font-family="Times New Roman,serif" font-size="14.00">&#39;B&#39;</text>
</g>
<!-- q18 -->
<g id="node21" class="node">
<title>q18</title>
<ellipse fill="none" stroke="black" cx="676" cy="-560.74" rx="24.74" ry="24.74"/>
<text xml:space="preserve" text-anchor="middle" x="676" y="-555.69" font-family="Times New Roman,serif" font-size="14.00">q18</text>
</g>
<!-- q0&#45;&gt;q18 -->
<g id="edge19" class="edge">
<title>q0&#45;&gt;q18</title>
<path fill="none" stroke="black" d="M91.09,-577.64C111.69,-570.15 143.19,-560.74 171.59,-560.74 171.59,-560.74 171.59,-560.74 442.27,-560.74 512.19,-560.74 593.91,-560.74 639.54,-560.74"/>
<polygon fill="black" stroke="black" points="639.36,-564.24 649.36,-560.74 639.36,-557.24 639.36,-564.24"/>
<text xml:space="preserve" text-anchor="middle" x="306.32" y="-563.94" font-family="Times New Roman,serif" font-size="14.00">&#39;E&#39;</text>
</g>
<!-- q22 -->
<g id="node25" class="node">
<title>q22</title>
<ellipse fill="none" stroke="black" cx="172.59" cy="-505.74" rx="24.74" ry="24.74"/>
<text xml:space="preserve" text-anchor="middle" x="172.59" y="-500.69" font-family="Times New Roman,serif" font-size="14.00">q22</text>
</g>
<!-- q0&#45;&gt;q22 -->
<g id="edge48" class="edge">
<title>q0&#45;&gt;q22</title>
<path fill="none" stroke="black" d="M78.32,-569.99C86.22,-557.61 98.36,-541.09 112.6,-530.24 120.04,-524.56 128.98,-519.97 137.63,-516.36"/>
<polygon fill="black" stroke="black" points="138.78,-519.67 146.88,-512.84 136.29,-513.13 138.78,-519.67"/>
<text xml:space="preserve" text-anchor="middle" x="121.22" y="-533.44" font-family="Times New Roman,serif" font-size="14.00">&#39;R&#39;</text>
</g>
<!-- q27 -->
<g id="node30" class="node">
<title>q27</title>
<ellipse fill="none" stroke="black" cx="172.59" cy="-437.74" rx="24.74" ry="24.74"/>
<text xml:space="preserve" text-anchor="middle" x="172.59" y="-432.69" font-family="Times New Roman,serif" font-size="14.00">q27</text>
</g>
<!-- q0&#45;&gt;q27 -->
<g id="edge61" class="edge">
<title>q0&#45;&gt;q27</title>
<path fill="none" stroke="black" d="M75.68,-569.34C83.44,-551.27 96.88,-522.55 112.6,-500.24 122.18,-486.63 134.62,-473.01 145.6,-461.98"/>
<polygon fill="black" stroke="black" points="147.87,-464.65 152.56,-455.15 142.97,-459.65 147.87,-464.65"/>
<text xml:space="preserve" text-anchor="middle" x="121.22" y="-503.44" font-family="Times New Roman,serif" font-size="14.00">&#39;U&#39;</text>
</g>
<!-- q31 -->
<g id="node34" class="node">
<title>q31</title>
<ellipse fill="none" stroke="black" cx="441.27" cy="-365.74" rx="24.74" ry="24.74"/>
<text xml:space="preserve" text-anchor="middle" x="441.27" y="-360.69" font-family="Times New Roman,serif" font-size="14.00">q31</text>
</g>
<!-- q0&#45;&gt;q31 -->
<g id="edge28" class="edge">
<title>q0&#45;&gt;q31</title>
<path fill="none" stroke="black" d="M70.46,-568.39C75.38,-530.43 92.43,-443.5 147.85,-403.74 225.68,-347.9 345.95,-353.38 405.05,-360.38"/>
<polygon fill="black" stroke="black" points="404.49,-363.84 414.86,-361.64 405.38,-356.89 404.49,-363.84"/>
<text xml:space="preserve" text-anchor="middle" x="239.46" y="-374.51" font-family="Times New Roman,serif" font-size="14.00">&#39;I&#39;</text>
</g>
<!-- q37 -->
<g id="node40" class="node">
<title>q37</title>
<ellipse fill="none" stroke="black" cx="172.59" cy="-309.74" rx="24.74" ry="24.74"/>
<text xml:space="preserve" text-anchor="middle" x="172.59" y="-304.69" font-family="Times New Roman,serif" font-size="14.00">q37</text>
</g>
<!-- q0&#45;&gt;q37 -->
<g id="edge41" class="edge">
<title>q0&#45;&gt;q37</title>
<path fill="none" stroke="black" d="M69.87,-568.38C73.68,-517.98 86.38,-378.76 112.6,-342.24 119.01,-333.31 128.67,-326.56 138.32,-321.58"/>
<polygon fill="black" stroke="black" points="139.62,-324.84 147.26,-317.5 136.71,-318.47 139.62,-324.84"/>
<text xml:space="preserve" text-anchor="middle" x="121.22" y="-345.44" font-family="Times New Roman,serif" font-size="14.00">&#39;O&#39;</text>
</g>
<!-- q42 -->
<g id="node45" class="node">
<title>q42</title>
<ellipse fill="none" stroke="black" cx="172.59" cy="-233.74" rx="24.74" ry="24.74"/>
<text xml:space="preserve" text-anchor="middle" x="172.59" y="-228.69" font-family="Times New Roman,serif" font-size="14.00">q42</text>
</g>
<!-- q0&#45;&gt;q42 -->
<g id="edge35" class="edge">
<title>q0&#45;&gt;q42</title>
<path fill="none" stroke="black" d="M68.29,-568.51C68.18,-522.56 71.99,-399.12 112.6,-307.24 120.58,-289.19 134.13,-271.84 146.23,-258.53"/>
<polygon fill="black" stroke="black" points="148.54,-261.18 152.86,-251.5 143.45,-256.37 148.54,-261.18"/>
<text xml:space="preserve" text-anchor="middle" x="121.22" y="-310.44" font-family="Times New Roman,serif" font-size="14.00">&#39;M&#39;</text>
</g>
<!-- q44 -->
<g id="node47" class="node">
<title>q44</title>
<ellipse fill="none" stroke="black" cx="172.59" cy="-148.74" rx="24.74" ry="24.74"/>
<text xml:space="preserve" text-anchor="middle" x="172.59" y="-143.69" font-family="Times New Roman,serif" font-size="14.00">q44</text>
</g>
<!-- q0&#45;&gt;q44 -->
<g id="edge16" class="edge">
<title>q0&#45;&gt;q44</title>
<path fill="none" stroke="black" d="M68.77,-568.43C69.71,-517.79 75.67,-372.08 112.6,-258.24 121.92,-229.51 138.66,-199.49 151.93,-178.17"/>
<polygon fill="black" stroke="black" points="154.71,-180.32 157.12,-170 148.8,-176.56 154.71,-180.32"/>
<text xml:space="preserve" text-anchor="middle" x="121.22" y="-261.44" font-family="Times New Roman,serif" font-size="14.00">&#39;D&#39;</text>
</g>
<!-- q46 -->
<g id="node49" class="node">
<title>q46</title>
<ellipse fill="none" stroke="black" cx="373.8" cy="-82.74" rx="24.74" ry="24.74"/>
<text xml:space="preserve" text-anchor="middle" x="373.8" y="-77.69" font-family="Times New Roman,serif" font-size="14.00">q46</text>
</g>
<!-- q0&#45;&gt;q46 -->
<g id="edge32" class="edge">
<title>q0&#45;&gt;q46</title>
<path fill="none" stroke="black" d="M68.47,-568.28C68.35,-486.48 72.61,-158.05 147.85,-98.24 202.49,-54.8 290.14,-64.35 338.31,-74.15"/>
<polygon fill="black" stroke="black" points="337.39,-77.53 347.9,-76.23 338.87,-70.69 337.39,-77.53"/>
<text xml:space="preserve" text-anchor="middle" x="172.59" y="-101.44" font-family="Times New Roman,serif" font-size="14.00">&#39;L&#39;</text>
</g>
<!-- q47 -->
<g id="node50" class="node">
<title>q47</title>
<ellipse fill="none" stroke="black" cx="373.8" cy="-24.74" rx="24.74" ry="24.74"/>
<text xml:space="preserve" text-anchor="middle" x="373.8" y="-19.69" font-family="Times New Roman,serif" font-size="14.00">q47</text>
</g>
<!-- q0&#45;&gt;q47 -->
<g id="edge25" class="edge">
<title>q0&#45;&gt;q47</title>
<path fill="none" stroke="black" d="M69.33,-568.46C72.49,-492.84 86.08,-204.45 112.6,-117.74 122.16,-86.5 120.86,-71.64 147.85,-53.24 205.27,-14.09 290.47,-15.38 337.83,-19.96"/>
<polygon fill="black" stroke="black" points="337.19,-23.41 347.51,-21 337.95,-16.45 337.19,-23.41"/>
<text xml:space="preserve" text-anchor="middle" x="172.59" y="-56.44" font-family="Times New Roman,serif" font-size="14.00">&#39;G&#39;</text>
</g>
<!-- q1&#45;&gt;q48 -->
<g id="edge10" class="edge">
<title>q1&#45;&gt;q48</title>
<path fill="none" stroke="black" d="M263.88,-1017.59C290.33,-1018.48 334.65,-1019.74 372.8,-1019.74 372.8,-1019.74 372.8,-1019.74 946.9,-1019.74 976.72,-1019.74 989.43,-1012.62 1005.89,-987.74 1029.94,-951.36 1045.1,-656.69 1049.94,-547.36"/>
<polygon fill="black" stroke="black" points="1053.43,-547.53 1050.37,-537.38 1046.44,-547.22 1053.43,-547.53"/>
<text xml:space="preserve" text-anchor="middle" x="676" y="-1022.94" font-family="Times New Roman,serif" font-size="14.00">&#39;&gt;&#39;</text>
</g>
<!-- q2&#45;&gt;q48 -->
<g id="edge11" class="edge">
<title>q2&#45;&gt;q48</title>
<path fill="none" stroke="black" d="M579.12,-928.74C612.54,-928.74 682.96,-928.74 742.47,-928.74 742.47,-928.74 742.47,-928.74 946.9,-928.74 987.24,-928.74 989.5,-896.61 1005.89,-859.74 1030.46,-804.43 1044.2,-627.11 1049.3,-546.86"/>
<polygon fill="black" stroke="black" points="1052.77,-547.46 1049.9,-537.26 1045.79,-547.03 1052.77,-547.46"/>
<text xml:space="preserve" text-anchor="middle" x="810.95" y="-931.94" font-family="Times New Roman,serif" font-size="14.00">&#39;&gt;&#39;</text>
</g>
<!-- q3&#45;&gt;q48 -->
<g id="edge3" class="edge">
<title>q3&#45;&gt;q48</title>
<path fill="none" stroke="black" d="M763.93,-886.36C804.35,-890.96 899.56,-897.3 970.64,-866.74 990.07,-858.38 996,-853.45 1005.89,-834.74 1031.86,-785.58 1044.69,-623.49 1049.42,-547.16"/>
<polygon fill="black" stroke="black" points="1052.91,-547.38 1050.01,-537.19 1045.92,-546.96 1052.91,-547.38"/>
<text xml:space="preserve" text-anchor="middle" x="878.42" y="-893.02" font-family="Times New Roman,serif" font-size="14.00">&#39;!&#39;</text>
</g>
<!-- q4&#45;&gt;q48 -->
<g id="edge5" class="edge">
<title>q4&#45;&gt;q48</title>
<path fill="none" stroke="black" d="M898.99,-846.11C927.09,-846.92 978.47,-843.81 1005.89,-813.74 1040.82,-775.42 1049.08,-621.21 1051.02,-547.01"/>
<polygon fill="black" stroke="black" points="1054.52,-547.41 1051.25,-537.33 1047.52,-547.25 1054.52,-547.41"/>
<text xml:space="preserve" text-anchor="middle" x="945.9" y="-848.98" font-family="Times New Roman,serif" font-size="14.00">&#39;&amp;&#39;</text>
</g>
<!-- q5&#45;&gt;q48 -->
<g id="edge69" class="edge">
<title>q5&#45;&gt;q48</title>
<path fill="none" stroke="black" d="M259.74,-798.21C285.51,-798.8 332.59,-799.74 372.8,-799.74 372.8,-799.74 372.8,-799.74 946.9,-799.74 963.21,-799.74 1002.48,-747.65 1005.89,-740.74 1036.98,-677.62 1046.94,-595.15 1050.13,-546.86"/>
<polygon fill="black" stroke="black" points="1053.61,-547.34 1050.7,-537.15 1046.62,-546.93 1053.61,-547.34"/>
<text xml:space="preserve" text-anchor="middle" x="676" y="-802.94" font-family="Times New Roman,serif" font-size="14.00">&#39;|&#39;</text>
</g>
<!-- q7 -->
<g id="node10" class="node">
<title>q7</title>
<ellipse fill="none" stroke="black" cx="306.32" cy="-743.74" rx="20.13" ry="20.13"/>
<text xml:space="preserve" text-anchor="middle" x="306.32" y="-738.69" font-family="Times New Roman,serif" font-size="14.00">q7</text>
</g>
<!-- q6&#45;&gt;q7 -->
<g id="edge49" class="edge">
<title>q6&#45;&gt;q7</title>
<path fill="none" stroke="black" d="M193.03,-743.74C214.43,-743.74 249.14,-743.74 274.32,-743.74"/>
<polygon fill="black" stroke="black" points="274.29,-747.24 284.29,-743.74 274.29,-740.24 274.29,-747.24"/>
<text xml:space="preserve" text-anchor="middle" x="239.46" y="-746.94" font-family="Times New Roman,serif" font-size="14.00">&#39;R&#39;</text>
</g>
<!-- q8 -->
<g id="node11" class="node">
<title>q8</title>
<ellipse fill="none" stroke="black" cx="441.27" cy="-743.74" rx="20.13" ry="20.13"/>
<text xml:space="preserve" text-anchor="middle" x="441.27" y="-738.69" font-family="Times New Roman,serif" font-size="14.00">q8</text>
</g>
<!-- q7&#45;&gt;q8 -->
<g id="edge42" class="edge">
<title>q7&#45;&gt;q8</title>
<path fill="none" stroke="black" d="M326.94,-743.74C348.77,-743.74 384.3,-743.74 409.76,-743.74"/>
<polygon fill="black" stroke="black" points="409.5,-747.24 419.5,-743.74 409.5,-740.24 409.5,-747.24"/>
<text xml:space="preserve" text-anchor="middle" x="373.8" y="-746.94" font-family="Times New Roman,serif" font-size="14.00">&#39;O&#39;</text>
</g>
<!-- q9 -->
<g id="node12" class="node">
<title>q9</title>
<ellipse fill="none" stroke="black" cx="676" cy="-743.74" rx="20.13" ry="20.13"/>
<text xml:space="preserve" text-anchor="middle" x="676" y="-738.69" font-family="Times New Roman,serif" font-size="14.00">q9</text>
</g>
<!-- q8&#45;&gt;q9 -->
<g id="edge26" class="edge">
<title>q8&#45;&gt;q9</title>
<path fill="none" stroke="black" d="M461.72,-743.74C502.1,-743.74 595.35,-743.74 644.08,-743.74"/>
<polygon fill="black" stroke="black" points="643.94,-747.24 653.94,-743.74 643.94,-740.24 643.94,-747.24"/>
<text xml:space="preserve" text-anchor="middle" x="558.64" y="-746.94" font-family="Times New Roman,serif" font-size="14.00">&#39;G&#39;</text>
</g>
<!-- q10 -->
<g id="node13" class="node">
<title>q10</title>
<ellipse fill="none" stroke="black" cx="810.95" cy="-745.74" rx="24.74" ry="24.74"/>
<text xml:space="preserve" text-anchor="middle" x="810.95" y="-740.69" font-family="Times New Roman,serif" font-size="14.00">q10</text>
</g>
<!-- q9&#45;&gt;q10 -->
<g id="edge50" class="edge">
<title>q9&#45;&gt;q10</title>
<path fill="none" stroke="black" d="M696.62,-744.03C717.07,-744.34 749.56,-744.83 774.52,-745.2"/>
<polygon fill="black" stroke="black" points="774.17,-748.7 784.22,-745.35 774.28,-741.7 774.17,-748.7"/>
<text xml:space="preserve" text-anchor="middle" x="743.47" y="-748.29" font-family="Times New Roman,serif" font-size="14.00">&#39;R&#39;</text>
</g>
<!-- q11 -->
<g id="node14" class="node">
<title>q11</title>
<ellipse fill="none" stroke="black" cx="945.9" cy="-746.74" rx="24.74" ry="24.74"/>
<text xml:space="preserve" text-anchor="middle" x="945.9" y="-741.69" font-family="Times New Roman,serif" font-size="14.00">q11</text>
</g>
<!-- q10&#45;&gt;q11 -->
<g id="edge12" class="edge">
<title>q10&#45;&gt;q11</title>
<path fill="none" stroke="black" d="M836.02,-745.92C856.54,-746.07 886.31,-746.3 909.54,-746.47"/>
<polygon fill="black" stroke="black" points="909.46,-749.97 919.49,-746.55 909.51,-742.97 909.46,-749.97"/>
<text xml:space="preserve" text-anchor="middle" x="878.42" y="-749.61" font-family="Times New Roman,serif" font-size="14.00">&#39;A&#39;</text>
</g>
<!-- q11&#45;&gt;q48 -->
<g id="edge36" class="edge">
<title>q11&#45;&gt;q48</title>
<path fill="none" stroke="black" d="M968.21,-735.51C981.01,-727.7 996.57,-716.12 1005.89,-701.74 1036.49,-654.49 1046.68,-589.01 1050.03,-547.26"/>
<polygon fill="black" stroke="black" points="1053.52,-547.61 1050.72,-537.4 1046.53,-547.13 1053.52,-547.61"/>
<text xml:space="preserve" text-anchor="middle" x="997.26" y="-722.98" font-family="Times New Roman,serif" font-size="14.00">&#39;M&#39;</text>
</g>
<!-- q13 -->
<g id="node16" class="node">
<title>q13</title>
<ellipse fill="none" stroke="black" cx="878.42" cy="-685.74" rx="24.74" ry="24.74"/>
<text xml:space="preserve" text-anchor="middle" x="878.42" y="-680.69" font-family="Times New Roman,serif" font-size="14.00">q13</text>
</g>
<!-- q12&#45;&gt;q13 -->
<g id="edge13" class="edge">
<title>q12&#45;&gt;q13</title>
<path fill="none" stroke="black" d="M197.38,-681.89C223.76,-683.08 267.57,-684.74 305.32,-684.74 305.32,-684.74 305.32,-684.74 744.47,-684.74 777.5,-684.74 815.14,-685.05 841.92,-685.33"/>
<polygon fill="black" stroke="black" points="841.86,-688.82 851.89,-685.43 841.93,-681.83 841.86,-688.82"/>
<text xml:space="preserve" text-anchor="middle" x="441.27" y="-687.94" font-family="Times New Roman,serif" font-size="14.00">&#39;A&#39;</text>
</g>
<!-- q13&#45;&gt;q48 -->
<g id="edge51" class="edge">
<title>q13&#45;&gt;q48</title>
<path fill="none" stroke="black" d="M902.36,-678.46C921.81,-671.55 949.8,-659.83 970.64,-643.74 1003.49,-618.35 1025.68,-575.56 1038.41,-544.54"/>
<polygon fill="black" stroke="black" points="1041.55,-546.11 1041.96,-535.52 1035.04,-543.54 1041.55,-546.11"/>
<text xml:space="preserve" text-anchor="middle" x="945.9" y="-674.22" font-family="Times New Roman,serif" font-size="14.00">&#39;R&#39;</text>
</g>
<!-- q15 -->
<g id="node18" class="node">
<title>q15</title>
<ellipse fill="none" stroke="black" cx="306.32" cy="-620.74" rx="24.74" ry="24.74"/>
<text xml:space="preserve" text-anchor="middle" x="306.32" y="-615.69" font-family="Times New Roman,serif" font-size="14.00">q15</text>
</g>
<!-- q14&#45;&gt;q15 -->
<g id="edge20" class="edge">
<title>q14&#45;&gt;q15</title>
<path fill="none" stroke="black" d="M197.75,-615.02C217.99,-616.1 247.16,-617.65 270.02,-618.86"/>
<polygon fill="black" stroke="black" points="269.63,-622.35 279.8,-619.38 270,-615.36 269.63,-622.35"/>
<text xml:space="preserve" text-anchor="middle" x="239.46" y="-621.67" font-family="Times New Roman,serif" font-size="14.00">&#39;E&#39;</text>
</g>
<!-- q16 -->
<g id="node19" class="node">
<title>q16</title>
<ellipse fill="none" stroke="black" cx="441.27" cy="-621.74" rx="24.74" ry="24.74"/>
<text xml:space="preserve" text-anchor="middle" x="441.27" y="-616.69" font-family="Times New Roman,serif" font-size="14.00">q16</text>
</g>
<!-- q15&#45;&gt;q16 -->
<g id="edge27" class="edge">
<title>q15&#45;&gt;q16</title>
<path fill="none" stroke="black" d="M331.4,-620.92C351.92,-621.07 381.69,-621.3 404.91,-621.47"/>
<polygon fill="black" stroke="black" points="404.84,-624.97 414.86,-621.55 404.89,-617.97 404.84,-624.97"/>
<text xml:space="preserve" text-anchor="middle" x="373.8" y="-624.61" font-family="Times New Roman,serif" font-size="14.00">&#39;G&#39;</text>
</g>
<!-- q17 -->
<g id="node20" class="node">
<title>q17</title>
<ellipse fill="none" stroke="black" cx="878.42" cy="-625.74" rx="24.74" ry="24.74"/>
<text xml:space="preserve" text-anchor="middle" x="878.42" y="-620.69" font-family="Times New Roman,serif" font-size="14.00">q17</text>
</g>
<!-- q16&#45;&gt;q17 -->
<g id="edge29" class="edge">
<title>q16&#45;&gt;q17</title>
<path fill="none" stroke="black" d="M466.29,-621.96C538.79,-622.62 755.75,-624.62 841.74,-625.41"/>
<polygon fill="black" stroke="black" points="841.67,-628.91 851.7,-625.5 841.73,-621.91 841.67,-628.91"/>
<text xml:space="preserve" text-anchor="middle" x="676" y="-627.26" font-family="Times New Roman,serif" font-size="14.00">&#39;I&#39;</text>
</g>
<!-- q17&#45;&gt;q48 -->
<g id="edge37" class="edge">
<title>q17&#45;&gt;q48</title>
<path fill="none" stroke="black" d="M903.41,-625.25C922.74,-623.9 950,-619.77 970.64,-607.74 997.36,-592.16 1018.76,-564.14 1032.83,-541.56"/>
<polygon fill="black" stroke="black" points="1035.67,-543.62 1037.81,-533.24 1029.67,-540.02 1035.67,-543.62"/>
<text xml:space="preserve" text-anchor="middle" x="945.9" y="-626.52" font-family="Times New Roman,serif" font-size="14.00">&#39;N&#39;</text>
</g>
<!-- q19 -->
<g id="node22" class="node">
<title>q19</title>
<ellipse fill="none" stroke="black" cx="945.9" cy="-573.74" rx="24.74" ry="24.74"/>
<text xml:space="preserve" text-anchor="middle" x="945.9" y="-568.69" font-family="Times New Roman,serif" font-size="14.00">q19</text>
</g>
<!-- q18&#45;&gt;q19 -->
<g id="edge38" class="edge">
<title>q18&#45;&gt;q19</title>
<path fill="none" stroke="black" d="M700.77,-561.89C748.02,-564.18 853.93,-569.32 909.43,-572.02"/>
<polygon fill="black" stroke="black" points="909.12,-575.51 919.28,-572.49 909.46,-568.51 909.12,-575.51"/>
<text xml:space="preserve" text-anchor="middle" x="810.95" y="-571.52" font-family="Times New Roman,serif" font-size="14.00">&#39;N&#39;</text>
</g>
<!-- q20 -->
<g id="node23" class="node">
<title>q20</title>
<ellipse fill="none" stroke="black" cx="810.95" cy="-512.74" rx="24.74" ry="24.74"/>
<text xml:space="preserve" text-anchor="middle" x="810.95" y="-507.69" font-family="Times New Roman,serif" font-size="14.00">q20</text>
</g>
<!-- q18&#45;&gt;q20 -->
<g id="edge33" class="edge">
<title>q18&#45;&gt;q20</title>
<path fill="none" stroke="black" d="M698.97,-551.17C705.31,-548.5 712.26,-545.67 718.74,-543.24 737.58,-536.15 758.91,-528.97 776.2,-523.36"/>
<polygon fill="black" stroke="black" points="777.03,-526.77 785.48,-520.38 774.88,-520.11 777.03,-526.77"/>
<text xml:space="preserve" text-anchor="middle" x="743.47" y="-546.44" font-family="Times New Roman,serif" font-size="14.00">&#39;L&#39;</text>
</g>
<!-- q19&#45;&gt;q48 -->
<g id="edge17" class="edge">
<title>q19&#45;&gt;q48</title>
<path fill="none" stroke="black" d="M967.34,-560.66C981.87,-551.36 1001.7,-538.68 1018.48,-527.94"/>
<polygon fill="black" stroke="black" points="1020.13,-531.04 1026.66,-522.71 1016.35,-525.15 1020.13,-531.04"/>
<text xml:space="preserve" text-anchor="middle" x="997.26" y="-549.44" font-family="Times New Roman,serif" font-size="14.00">&#39;D&#39;</text>
</g>
<!-- q21 -->
<g id="node24" class="node">
<title>q21</title>
<ellipse fill="none" stroke="black" cx="945.9" cy="-506.74" rx="24.74" ry="24.74"/>
<text xml:space="preserve" text-anchor="middle" x="945.9" y="-501.69" font-family="Times New Roman,serif" font-size="14.00">q21</text>
</g>
<!-- q20&#45;&gt;q21 -->
<g id="edge52" class="edge">
<title>q20&#45;&gt;q21</title>
<path fill="none" stroke="black" d="M836.02,-511.65C856.54,-510.72 886.31,-509.38 909.54,-508.33"/>
<polygon fill="black" stroke="black" points="909.66,-511.83 919.49,-507.88 909.34,-504.84 909.66,-511.83"/>
<text xml:space="preserve" text-anchor="middle" x="878.42" y="-514" font-family="Times New Roman,serif" font-size="14.00">&#39;S&#39;</text>
</g>
<!-- q21&#45;&gt;q48 -->
<g id="edge21" class="edge">
<title>q21&#45;&gt;q48</title>
<path fill="none" stroke="black" d="M970.92,-506.74C983.19,-506.74 998.43,-506.74 1012.34,-506.74"/>
<polygon fill="black" stroke="black" points="1012.12,-510.24 1022.12,-506.74 1012.12,-503.24 1012.12,-510.24"/>
<text xml:space="preserve" text-anchor="middle" x="997.26" y="-509.94" font-family="Times New Roman,serif" font-size="14.00">&#39;E&#39;</text>
</g>
<!-- q23 -->
<g id="node26" class="node">
<title>q23</title>
<ellipse fill="none" stroke="black" cx="306.32" cy="-499.74" rx="24.74" ry="24.74"/>
<text xml:space="preserve" text-anchor="middle" x="306.32" y="-494.69" font-family="Times New Roman,serif" font-size="14.00">q23</text>
</g>
<!-- q22&#45;&gt;q23 -->
<g id="edge22" class="edge">
<title>q22&#45;&gt;q23</title>
<path fill="none" stroke="black" d="M197.75,-504.64C217.99,-503.72 247.16,-502.39 270.02,-501.35"/>
<polygon fill="black" stroke="black" points="269.97,-504.85 279.8,-500.9 269.65,-497.86 269.97,-504.85"/>
<text xml:space="preserve" text-anchor="middle" x="239.46" y="-507" font-family="Times New Roman,serif" font-size="14.00">&#39;E&#39;</text>
</g>
<!-- q24 -->
<g id="node27" class="node">
<title>q24</title>
<ellipse fill="none" stroke="black" cx="441.27" cy="-499.74" rx="24.74" ry="24.74"/>
<text xml:space="preserve" text-anchor="middle" x="441.27" y="-494.69" font-family="Times New Roman,serif" font-size="14.00">q24</text>
</g>
<!-- q23&#45;&gt;q24 -->
<g id="edge45" class="edge">
<title>q23&#45;&gt;q24</title>
<path fill="none" stroke="black" d="M331.4,-499.74C351.92,-499.74 381.69,-499.74 404.91,-499.74"/>
<polygon fill="black" stroke="black" points="404.86,-503.24 414.86,-499.74 404.86,-496.24 404.86,-503.24"/>
<text xml:space="preserve" text-anchor="middle" x="373.8" y="-502.94" font-family="Times New Roman,serif" font-size="14.00">&#39;P&#39;</text>
</g>
<!-- q25 -->
<g id="node28" class="node">
<title>q25</title>
<ellipse fill="none" stroke="black" cx="676" cy="-483.74" rx="24.74" ry="24.74"/>
<text xml:space="preserve" text-anchor="middle" x="676" y="-478.69" font-family="Times New Roman,serif" font-size="14.00">q25</text>
</g>
<!-- q24&#45;&gt;q25 -->
<g id="edge23" class="edge">
<title>q24&#45;&gt;q25</title>
<path fill="none" stroke="black" d="M466.3,-498.09C507.52,-495.25 591.88,-489.45 639.76,-486.16"/>
<polygon fill="black" stroke="black" points="639.85,-489.66 649.59,-485.48 639.37,-482.68 639.85,-489.66"/>
<text xml:space="preserve" text-anchor="middle" x="558.64" y="-499.88" font-family="Times New Roman,serif" font-size="14.00">&#39;E&#39;</text>
</g>
<!-- q26 -->
<g id="node29" class="node">
<title>q26</title>
<ellipse fill="none" stroke="black" cx="878.42" cy="-453.74" rx="24.74" ry="24.74"/>
<text xml:space="preserve" text-anchor="middle" x="878.42" y="-448.69" font-family="Times New Roman,serif" font-size="14.00">q26</text>
</g>
<!-- q25&#45;&gt;q26 -->
<g id="edge14" class="edge">
<title>q25&#45;&gt;q26</title>
<path fill="none" stroke="black" d="M700.78,-480.18C735.88,-474.92 801.81,-465.06 842.44,-458.97"/>
<polygon fill="black" stroke="black" points="842.81,-462.46 852.18,-457.52 841.77,-455.53 842.81,-462.46"/>
<text xml:space="preserve" text-anchor="middle" x="743.47" y="-480.46" font-family="Times New Roman,serif" font-size="14.00">&#39;A&#39;</text>
</g>
<!-- q26&#45;&gt;q48 -->
<g id="edge53" class="edge">
<title>q26&#45;&gt;q48</title>
<path fill="none" stroke="black" d="M903.21,-451.03C921.94,-449.69 948.49,-449.57 970.64,-456.24 988.6,-461.65 1006.51,-472.15 1020.9,-482.18"/>
<polygon fill="black" stroke="black" points="1018.44,-484.72 1028.6,-487.75 1022.55,-479.05 1018.44,-484.72"/>
<text xml:space="preserve" text-anchor="middle" x="945.9" y="-459.44" font-family="Times New Roman,serif" font-size="14.00">&#39;T&#39;</text>
</g>
<!-- q28 -->
<g id="node31" class="node">
<title>q28</title>
<ellipse fill="none" stroke="black" cx="306.32" cy="-432.74" rx="24.74" ry="24.74"/>
<text xml:space="preserve" text-anchor="middle" x="306.32" y="-427.69" font-family="Times New Roman,serif" font-size="14.00">q28</text>
</g>
<!-- q27&#45;&gt;q28 -->
<g id="edge39" class="edge">
<title>q27&#45;&gt;q28</title>
<path fill="none" stroke="black" d="M197.75,-436.82C217.99,-436.05 247.16,-434.95 270.02,-434.08"/>
<polygon fill="black" stroke="black" points="269.94,-437.58 279.8,-433.71 269.68,-430.59 269.94,-437.58"/>
<text xml:space="preserve" text-anchor="middle" x="239.46" y="-439.32" font-family="Times New Roman,serif" font-size="14.00">&#39;N&#39;</text>
</g>
<!-- q29 -->
<g id="node32" class="node">
<title>q29</title>
<ellipse fill="none" stroke="black" cx="441.27" cy="-432.74" rx="24.74" ry="24.74"/>
<text xml:space="preserve" text-anchor="middle" x="441.27" y="-427.69" font-family="Times New Roman,serif" font-size="14.00">q29</text>
</g>
<!-- q28&#45;&gt;q29 -->
<g id="edge54" class="edge">
<title>q28&#45;&gt;q29</title>
<path fill="none" stroke="black" d="M331.4,-432.74C351.92,-432.74 381.69,-432.74 404.91,-432.74"/>
<polygon fill="black" stroke="black" points="404.86,-436.24 414.86,-432.74 404.86,-429.24 404.86,-436.24"/>
<text xml:space="preserve" text-anchor="middle" x="373.8" y="-435.94" font-family="Times New Roman,serif" font-size="14.00">&#39;T&#39;</text>
</g>
<!-- q30 -->
<g id="node33" class="node">
<title>q30</title>
<ellipse fill="none" stroke="black" cx="743.47" cy="-411.74" rx="24.74" ry="24.74"/>
<text xml:space="preserve" text-anchor="middle" x="743.47" y="-406.69" font-family="Times New Roman,serif" font-size="14.00">q30</text>
</g>
<!-- q29&#45;&gt;q30 -->
<g id="edge30" class="edge">
<title>q29&#45;&gt;q30</title>
<path fill="none" stroke="black" d="M466.33,-431.05C519.14,-427.36 645.4,-418.53 707.19,-414.21"/>
<polygon fill="black" stroke="black" points="707.06,-417.72 716.79,-413.53 706.57,-410.74 707.06,-417.72"/>
<text xml:space="preserve" text-anchor="middle" x="558.64" y="-432.82" font-family="Times New Roman,serif" font-size="14.00">&#39;I&#39;</text>
</g>
<!-- q30&#45;&gt;q48 -->
<g id="edge34" class="edge">
<title>q30&#45;&gt;q48</title>
<path fill="none" stroke="black" d="M768.04,-406.12C799.41,-399.61 856.4,-391.23 903.16,-403.24 953.63,-416.2 964.43,-428.17 1005.89,-459.74 1012.61,-464.86 1019.28,-470.96 1025.37,-477.05"/>
<polygon fill="black" stroke="black" points="1022.74,-479.37 1032.2,-484.15 1027.79,-474.52 1022.74,-479.37"/>
<text xml:space="preserve" text-anchor="middle" x="878.42" y="-406.44" font-family="Times New Roman,serif" font-size="14.00">&#39;L&#39;</text>
</g>
<!-- q31&#45;&gt;q48 -->
<g id="edge24" class="edge">
<title>q31&#45;&gt;q48</title>
<path fill="none" stroke="black" d="M466.38,-364.86C557.85,-361.95 882.73,-355.34 970.64,-404.74 997.77,-419.98 1019.13,-448.32 1033.09,-471.26"/>
<polygon fill="black" stroke="black" points="1029.97,-472.86 1038.03,-479.73 1036.01,-469.33 1029.97,-472.86"/>
<text xml:space="preserve" text-anchor="middle" x="810.95" y="-376.42" font-family="Times New Roman,serif" font-size="14.00">&#39;F&#39;</text>
</g>
<!-- q32 -->
<g id="node35" class="node">
<title>q32</title>
<ellipse fill="none" stroke="black" cx="676" cy="-304.74" rx="24.74" ry="24.74"/>
<text xml:space="preserve" text-anchor="middle" x="676" y="-299.69" font-family="Times New Roman,serif" font-size="14.00">q32</text>
</g>
<!-- q31&#45;&gt;q32 -->
<g id="edge40" class="edge">
<title>q31&#45;&gt;q32</title>
<path fill="none" stroke="black" d="M460.24,-349.73C467.22,-344.31 475.56,-338.76 484.01,-335.24 535.28,-313.88 600.02,-307.39 639.42,-305.47"/>
<polygon fill="black" stroke="black" points="639.43,-308.97 649.29,-305.07 639.15,-301.98 639.43,-308.97"/>
<text xml:space="preserve" text-anchor="middle" x="558.64" y="-338.44" font-family="Times New Roman,serif" font-size="14.00">&#39;N&#39;</text>
</g>
<!-- q33 -->
<g id="node36" class="node">
<title>q33</title>
<ellipse fill="none" stroke="black" cx="810.95" cy="-304.74" rx="24.74" ry="24.74"/>
<text xml:space="preserve" text-anchor="middle" x="810.95" y="-299.69" font-family="Times New Roman,serif" font-size="14.00">q33</text>
</g>
<!-- q32&#45;&gt;q33 -->
<g id="edge55" class="edge">
<title>q32&#45;&gt;q33</title>
<path fill="none" stroke="black" d="M701.07,-304.74C721.59,-304.74 751.36,-304.74 774.59,-304.74"/>
<polygon fill="black" stroke="black" points="774.54,-308.24 784.54,-304.74 774.54,-301.24 774.54,-308.24"/>
<text xml:space="preserve" text-anchor="middle" x="743.47" y="-307.94" font-family="Times New Roman,serif" font-size="14.00">&#39;T&#39;</text>
</g>
<!-- q35 -->
<g id="node38" class="node">
<title>q35</title>
<ellipse fill="none" stroke="black" cx="810.95" cy="-237.74" rx="24.74" ry="24.74"/>
<text xml:space="preserve" text-anchor="middle" x="810.95" y="-232.69" font-family="Times New Roman,serif" font-size="14.00">q35</text>
</g>
<!-- q32&#45;&gt;q35 -->
<g id="edge46" class="edge">
<title>q32&#45;&gt;q35</title>
<path fill="none" stroke="black" d="M698.66,-293.82C720.19,-282.97 753.47,-266.2 778.04,-253.82"/>
<polygon fill="black" stroke="black" points="779.59,-256.95 786.95,-249.33 776.44,-250.7 779.59,-256.95"/>
<text xml:space="preserve" text-anchor="middle" x="743.47" y="-286.27" font-family="Times New Roman,serif" font-size="14.00">&#39;P&#39;</text>
</g>
<!-- q34 -->
<g id="node37" class="node">
<title>q34</title>
<ellipse fill="none" stroke="black" cx="945.9" cy="-310.74" rx="24.74" ry="24.74"/>
<text xml:space="preserve" text-anchor="middle" x="945.9" y="-305.69" font-family="Times New Roman,serif" font-size="14.00">q34</text>
</g>
<!-- q33&#45;&gt;q34 -->
<g id="edge67" class="edge">
<title>q33&#45;&gt;q34</title>
<path fill="none" stroke="black" d="M836.02,-305.82C856.54,-306.75 886.31,-308.09 909.54,-309.14"/>
<polygon fill="black" stroke="black" points="909.34,-312.64 919.49,-309.59 909.66,-305.64 909.34,-312.64"/>
<text xml:space="preserve" text-anchor="middle" x="878.42" y="-312" font-family="Times New Roman,serif" font-size="14.00">&#39;_&#39;</text>
</g>
<!-- q34&#45;&gt;q48 -->
<g id="edge8" class="edge">
<title>q34&#45;&gt;q48</title>
<path fill="none" stroke="black" d="M970.82,-314.53C982.9,-317.62 996.87,-323.21 1005.89,-333.24 1038.91,-369.98 1048.57,-427.79 1051.14,-466.46"/>
<polygon fill="black" stroke="black" points="1047.64,-466.48 1051.65,-476.29 1054.63,-466.12 1047.64,-466.48"/>
<text xml:space="preserve" text-anchor="middle" x="997.26" y="-336.44" font-family="Times New Roman,serif" font-size="14.00">&#39;2&#39;</text>
</g>
<!-- q36 -->
<g id="node39" class="node">
<title>q36</title>
<ellipse fill="none" stroke="black" cx="945.9" cy="-243.74" rx="24.74" ry="24.74"/>
<text xml:space="preserve" text-anchor="middle" x="945.9" y="-238.69" font-family="Times New Roman,serif" font-size="14.00">q36</text>
</g>
<!-- q35&#45;&gt;q36 -->
<g id="edge62" class="edge">
<title>q35&#45;&gt;q36</title>
<path fill="none" stroke="black" d="M836.02,-238.82C856.54,-239.75 886.31,-241.09 909.54,-242.14"/>
<polygon fill="black" stroke="black" points="909.34,-245.64 919.49,-242.59 909.66,-238.64 909.34,-245.64"/>
<text xml:space="preserve" text-anchor="middle" x="878.42" y="-245" font-family="Times New Roman,serif" font-size="14.00">&#39;U&#39;</text>
</g>
<!-- q36&#45;&gt;q48 -->
<g id="edge56" class="edge">
<title>q36&#45;&gt;q48</title>
<path fill="none" stroke="black" d="M966.53,-257.91C979.65,-268.41 996.21,-283.87 1005.89,-301.24 1035.07,-353.58 1045.63,-423.18 1049.45,-466.45"/>
<polygon fill="black" stroke="black" points="1045.94,-466.46 1050.22,-476.15 1052.92,-465.9 1045.94,-466.46"/>
<text xml:space="preserve" text-anchor="middle" x="997.26" y="-304.44" font-family="Times New Roman,serif" font-size="14.00">&#39;T&#39;</text>
</g>
<!-- q38 -->
<g id="node41" class="node">
<title>q38</title>
<ellipse fill="none" stroke="black" cx="306.32" cy="-271.74" rx="24.74" ry="24.74"/>
<text xml:space="preserve" text-anchor="middle" x="306.32" y="-266.69" font-family="Times New Roman,serif" font-size="14.00">q38</text>
</g>
<!-- q37&#45;&gt;q38 -->
<g id="edge63" class="edge">
<title>q37&#45;&gt;q38</title>
<path fill="none" stroke="black" d="M196.84,-303.03C217.53,-297.06 248.06,-288.26 271.46,-281.5"/>
<polygon fill="black" stroke="black" points="272.22,-284.93 280.85,-278.8 270.28,-278.2 272.22,-284.93"/>
<text xml:space="preserve" text-anchor="middle" x="239.46" y="-300.65" font-family="Times New Roman,serif" font-size="14.00">&#39;U&#39;</text>
</g>
<!-- q39 -->
<g id="node42" class="node">
<title>q39</title>
<ellipse fill="none" stroke="black" cx="441.27" cy="-263.74" rx="24.74" ry="24.74"/>
<text xml:space="preserve" text-anchor="middle" x="441.27" y="-258.69" font-family="Times New Roman,serif" font-size="14.00">q39</text>
</g>
<!-- q38&#45;&gt;q39 -->
<g id="edge57" class="edge">
<title>q38&#45;&gt;q39</title>
<path fill="none" stroke="black" d="M331.4,-270.29C351.92,-269.05 381.69,-267.26 404.91,-265.87"/>
<polygon fill="black" stroke="black" points="405.09,-269.36 414.87,-265.27 404.67,-262.37 405.09,-269.36"/>
<text xml:space="preserve" text-anchor="middle" x="373.8" y="-272.35" font-family="Times New Roman,serif" font-size="14.00">&#39;T&#39;</text>
</g>
<!-- q40 -->
<g id="node43" class="node">
<title>q40</title>
<ellipse fill="none" stroke="black" cx="676" cy="-236.74" rx="24.74" ry="24.74"/>
<text xml:space="preserve" text-anchor="middle" x="676" y="-231.69" font-family="Times New Roman,serif" font-size="14.00">q40</text>
</g>
<!-- q39&#45;&gt;q40 -->
<g id="edge47" class="edge">
<title>q39&#45;&gt;q40</title>
<path fill="none" stroke="black" d="M466.3,-260.95C507.52,-256.17 591.88,-246.38 639.76,-240.83"/>
<polygon fill="black" stroke="black" points="640.07,-244.31 649.6,-239.68 639.26,-237.36 640.07,-244.31"/>
<text xml:space="preserve" text-anchor="middle" x="558.64" y="-261.77" font-family="Times New Roman,serif" font-size="14.00">&#39;P&#39;</text>
</g>
<!-- q41 -->
<g id="node44" class="node">
<title>q41</title>
<ellipse fill="none" stroke="black" cx="878.42" cy="-184.74" rx="24.74" ry="24.74"/>
<text xml:space="preserve" text-anchor="middle" x="878.42" y="-179.69" font-family="Times New Roman,serif" font-size="14.00">q41</text>
</g>
<!-- q40&#45;&gt;q41 -->
<g id="edge64" class="edge">
<title>q40&#45;&gt;q41</title>
<path fill="none" stroke="black" d="M699.84,-229.19C721.83,-222.09 756.08,-211.41 786.21,-203.74 804.68,-199.03 825.47,-194.64 842.53,-191.26"/>
<polygon fill="black" stroke="black" points="843.03,-194.72 852.18,-189.38 841.7,-187.85 843.03,-194.72"/>
<text xml:space="preserve" text-anchor="middle" x="743.47" y="-226.38" font-family="Times New Roman,serif" font-size="14.00">&#39;U&#39;</text>
</g>
<!-- q41&#45;&gt;q48 -->
<g id="edge58" class="edge">
<title>q41&#45;&gt;q48</title>
<path fill="none" stroke="black" d="M903.08,-180.71C922.98,-178.67 951.23,-179.09 970.64,-193.24 1014.81,-225.45 1038.61,-389.7 1047.5,-466.75"/>
<polygon fill="black" stroke="black" points="1043.99,-466.84 1048.58,-476.39 1050.94,-466.06 1043.99,-466.84"/>
<text xml:space="preserve" text-anchor="middle" x="945.9" y="-196.44" font-family="Times New Roman,serif" font-size="14.00">&#39;T&#39;</text>
</g>
<!-- q43 -->
<g id="node46" class="node">
<title>q43</title>
<ellipse fill="none" stroke="black" cx="743.47" cy="-138.74" rx="24.74" ry="24.74"/>
<text xml:space="preserve" text-anchor="middle" x="743.47" y="-133.69" font-family="Times New Roman,serif" font-size="14.00">q43</text>
</g>
<!-- q42&#45;&gt;q43 -->
<g id="edge43" class="edge">
<title>q42&#45;&gt;q43</title>
<path fill="none" stroke="black" d="M192.99,-219.35C217.73,-202.47 262.46,-176.74 305.32,-176.74 305.32,-176.74 305.32,-176.74 559.64,-176.74 612.59,-176.74 672.39,-161.27 708.76,-150.07"/>
<polygon fill="black" stroke="black" points="709.78,-153.42 718.26,-147.07 707.67,-146.75 709.78,-153.42"/>
<text xml:space="preserve" text-anchor="middle" x="373.8" y="-179.94" font-family="Times New Roman,serif" font-size="14.00">&#39;O&#39;</text>
</g>
<!-- q43&#45;&gt;q48 -->
<g id="edge18" class="edge">
<title>q43&#45;&gt;q48</title>
<path fill="none" stroke="black" d="M768.14,-133.73C799.64,-128.03 856.75,-121.11 903.16,-134.24 958.19,-149.81 980.27,-160.6 1005.89,-211.74 1027.88,-255.65 1042.38,-396.24 1048.42,-466.29"/>
<polygon fill="black" stroke="black" points="1044.93,-466.53 1049.26,-476.2 1051.91,-465.94 1044.93,-466.53"/>
<text xml:space="preserve" text-anchor="middle" x="878.42" y="-137.44" font-family="Times New Roman,serif" font-size="14.00">&#39;D&#39;</text>
</g>
<!-- q45 -->
<g id="node48" class="node">
<title>q45</title>
<ellipse fill="none" stroke="black" cx="558.64" cy="-111.74" rx="24.74" ry="24.74"/>
<text xml:space="preserve" text-anchor="middle" x="558.64" y="-106.69" font-family="Times New Roman,serif" font-size="14.00">q45</text>
</g>
<!-- q44&#45;&gt;q45 -->
<g id="edge31" class="edge">
<title>q44&#45;&gt;q45</title>
<path fill="none" stroke="black" d="M197.61,-146.42C263.21,-140.1 445.63,-122.53 522.63,-115.11"/>
<polygon fill="black" stroke="black" points="522.5,-118.64 532.11,-114.2 521.83,-111.67 522.5,-118.64"/>
<text xml:space="preserve" text-anchor="middle" x="306.32" y="-141.28" font-family="Times New Roman,serif" font-size="14.00">&#39;I&#39;</text>
</g>
<!-- q45&#45;&gt;q48 -->
<g id="edge66" class="edge">
<title>q45&#45;&gt;q48</title>
<path fill="none" stroke="black" d="M583.56,-108.95C618.44,-105.13 685.35,-98.74 742.47,-98.74 742.47,-98.74 742.47,-98.74 946.9,-98.74 1022.25,-98.74 1044.15,-363.16 1049.83,-466.26"/>
<polygon fill="black" stroke="black" points="1046.33,-466.41 1050.35,-476.21 1053.32,-466.04 1046.33,-466.41"/>
<text xml:space="preserve" text-anchor="middle" x="810.95" y="-101.94" font-family="Times New Roman,serif" font-size="14.00">&#39;V&#39;</text>
</g>
<!-- q46&#45;&gt;q48 -->
<g id="edge59" class="edge">
<title>q46&#45;&gt;q48</title>
<path fill="none" stroke="black" d="M397.98,-76.45C432.49,-67.65 499.57,-52.74 557.64,-52.74 557.64,-52.74 557.64,-52.74 946.9,-52.74 1031.38,-52.74 1047.72,-355.01 1050.87,-466.27"/>
<polygon fill="black" stroke="black" points="1047.37,-466.23 1051.13,-476.13 1054.37,-466.05 1047.37,-466.23"/>
<text xml:space="preserve" text-anchor="middle" x="743.47" y="-55.94" font-family="Times New Roman,serif" font-size="14.00">&#39;T&#39;</text>
</g>
<!-- q47&#45;&gt;q48 -->
<g id="edge60" class="edge">
<title>q47&#45;&gt;q48</title>
<path fill="none" stroke="black" d="M398.73,-22.16C433.62,-18.64 500.54,-12.74 557.64,-12.74 557.64,-12.74 557.64,-12.74 946.9,-12.74 1039.39,-12.74 1050.56,-348.34 1051.63,-466.32"/>
<polygon fill="black" stroke="black" points="1048.13,-466.19 1051.69,-476.17 1055.13,-466.14 1048.13,-466.19"/>
<text xml:space="preserve" text-anchor="middle" x="743.47" y="-15.94" font-family="Times New Roman,serif" font-size="14.00">&#39;T&#39;</text>
</g>
</g>
</svg>
